<mxfile host="app.diagrams.net" modified="2024-02-16T14:25:49.616Z" agent="Mozilla/5.0 (Windows NT 10.0; Win64; x64) AppleWebKit/537.36 (KHTML, like Gecko) Chrome/121.0.0.0 Safari/537.36" etag="Rl5U_t_qfaIQaBiPLe72" version="23.1.5" type="github">
  <diagram name="第 1 页" id="ILjWctDhpmsEOWFDxLtq">
    <mxGraphModel dx="4550" dy="2607" grid="0" gridSize="10" guides="1" tooltips="1" connect="1" arrows="1" fold="1" page="0" pageScale="1" pageWidth="827" pageHeight="1169" math="0" shadow="0">
      <root>
        <mxCell id="0" />
        <mxCell id="1" parent="0" />
        <mxCell id="dYpTiOb7dCnP9YXtlggP-1" value="" style="rounded=1;whiteSpace=wrap;html=1;dashed=1;strokeWidth=5;arcSize=11;gradientColor=none;fillColor=none;" vertex="1" parent="1">
          <mxGeometry x="1850" y="40" width="1074" height="1324" as="geometry" />
        </mxCell>
        <mxCell id="dYpTiOb7dCnP9YXtlggP-2" value="" style="rounded=1;whiteSpace=wrap;html=1;rotation=90;strokeWidth=1;arcSize=45;fillColor=#d5e8d4;strokeColor=#82b366;fontSize=25;" vertex="1" parent="1">
          <mxGeometry x="106.75" y="299.5" width="544" height="129" as="geometry" />
        </mxCell>
        <mxCell id="dYpTiOb7dCnP9YXtlggP-3" value="" style="rounded=1;whiteSpace=wrap;html=1;rotation=90;strokeWidth=1;arcSize=45;fillColor=#d5e8d4;strokeColor=#82b366;fontSize=25;" vertex="1" parent="1">
          <mxGeometry x="1217.75" y="669.1300000000001" width="544" height="129" as="geometry" />
        </mxCell>
        <mxCell id="dYpTiOb7dCnP9YXtlggP-4" value="" style="rounded=1;whiteSpace=wrap;html=1;rotation=90;strokeWidth=1;arcSize=45;fillColor=#dae8fc;strokeColor=#6c8ebf;" vertex="1" parent="1">
          <mxGeometry x="-31" y="297.25" width="406.5" height="129" as="geometry" />
        </mxCell>
        <mxCell id="dYpTiOb7dCnP9YXtlggP-5" value="" style="rounded=1;whiteSpace=wrap;html=1;rotation=90;strokeWidth=1;arcSize=45;fillColor=#d5e8d4;strokeColor=#82b366;fontSize=25;" vertex="1" parent="1">
          <mxGeometry x="309.75" y="297.5" width="544" height="129" as="geometry" />
        </mxCell>
        <mxCell id="dYpTiOb7dCnP9YXtlggP-6" value="" style="rounded=1;whiteSpace=wrap;html=1;rotation=90;strokeWidth=1;arcSize=45;fillColor=#d5e8d4;strokeColor=#82b366;fontSize=25;" vertex="1" parent="1">
          <mxGeometry x="2089.25" y="648.5" width="544" height="129" as="geometry" />
        </mxCell>
        <mxCell id="dYpTiOb7dCnP9YXtlggP-7" value="" style="rounded=1;whiteSpace=wrap;html=1;rotation=90;strokeWidth=1;arcSize=45;fillColor=#d5e8d4;strokeColor=#82b366;fontSize=25;" vertex="1" parent="1">
          <mxGeometry x="1886.25" y="650.5" width="544" height="129" as="geometry" />
        </mxCell>
        <mxCell id="dYpTiOb7dCnP9YXtlggP-8" value="" style="rounded=1;whiteSpace=wrap;html=1;dashed=1;strokeWidth=5;arcSize=14;gradientColor=none;fillColor=none;fontColor=#dac6b6;" vertex="1" parent="1">
          <mxGeometry x="946.25" y="40" width="886" height="1324" as="geometry" />
        </mxCell>
        <mxCell id="dYpTiOb7dCnP9YXtlggP-9" value="" style="rounded=1;whiteSpace=wrap;html=1;dashed=1;strokeWidth=5;arcSize=14;gradientColor=none;fillColor=none;" vertex="1" parent="1">
          <mxGeometry x="40" y="40" width="886" height="1324" as="geometry" />
        </mxCell>
        <mxCell id="dYpTiOb7dCnP9YXtlggP-10" value="" style="rounded=1;whiteSpace=wrap;html=1;rotation=90;strokeWidth=1;arcSize=45;fillColor=#f8cecc;strokeColor=#b85450;fontSize=25;" vertex="1" parent="1">
          <mxGeometry x="1546.88" y="684.5" width="291.25" height="129" as="geometry" />
        </mxCell>
        <mxCell id="dYpTiOb7dCnP9YXtlggP-11" style="edgeStyle=none;curved=1;rounded=0;orthogonalLoop=1;jettySize=auto;html=1;exitX=1;exitY=0.5;exitDx=0;exitDy=0;entryX=0;entryY=0.5;entryDx=0;entryDy=0;fontSize=12;startSize=8;endSize=8;strokeWidth=0.5;endArrow=classic;endFill=1;sourcePerimeterSpacing=1;" edge="1" parent="1" source="dYpTiOb7dCnP9YXtlggP-157" target="dYpTiOb7dCnP9YXtlggP-238">
          <mxGeometry relative="1" as="geometry" />
        </mxCell>
        <mxCell id="dYpTiOb7dCnP9YXtlggP-12" value="h&lt;span style=&quot;border-color: var(--border-color);&quot;&gt;&lt;sub&gt;11&lt;/sub&gt;&lt;/span&gt;" style="ellipse;whiteSpace=wrap;html=1;aspect=fixed;fontSize=25;" vertex="1" parent="1">
          <mxGeometry x="338.75" y="143" width="80" height="80" as="geometry" />
        </mxCell>
        <mxCell id="dYpTiOb7dCnP9YXtlggP-13" value="h&lt;sub style=&quot;border-color: var(--border-color);&quot;&gt;22&lt;/sub&gt;" style="ellipse;whiteSpace=wrap;html=1;aspect=fixed;fontSize=25;" vertex="1" parent="1">
          <mxGeometry x="1449.75" y="642.6300000000001" width="80" height="80" as="geometry" />
        </mxCell>
        <mxCell id="dYpTiOb7dCnP9YXtlggP-14" value="Hidden Layer2" style="text;strokeColor=none;fillColor=none;html=1;align=center;verticalAlign=middle;whiteSpace=wrap;rounded=0;fontSize=26;fontColor=#c2d4a0;" vertex="1" parent="1">
          <mxGeometry x="1415.25" y="1034.63" width="149" height="30" as="geometry" />
        </mxCell>
        <mxCell id="dYpTiOb7dCnP9YXtlggP-15" value="h&lt;sub style=&quot;border-color: var(--border-color);&quot;&gt;21&lt;/sub&gt;" style="ellipse;whiteSpace=wrap;html=1;aspect=fixed;fontSize=25;" vertex="1" parent="1">
          <mxGeometry x="1449.75" y="514.6300000000001" width="80" height="80" as="geometry" />
        </mxCell>
        <mxCell id="dYpTiOb7dCnP9YXtlggP-16" value="" style="rounded=1;whiteSpace=wrap;html=1;rotation=90;strokeWidth=1;arcSize=45;fillColor=#d5e8d4;strokeColor=#82b366;fontSize=25;" vertex="1" parent="1">
          <mxGeometry x="307.75" y="931.5" width="544" height="129" as="geometry" />
        </mxCell>
        <mxCell id="dYpTiOb7dCnP9YXtlggP-17" value="MOR" style="text;strokeColor=none;fillColor=none;html=1;align=center;verticalAlign=middle;whiteSpace=wrap;rounded=0;fontSize=60;fontStyle=1;horizontal=1;" vertex="1" parent="1">
          <mxGeometry x="1625" y="92" width="149" height="30" as="geometry" />
        </mxCell>
        <mxCell id="dYpTiOb7dCnP9YXtlggP-18" value="" style="rounded=1;whiteSpace=wrap;html=1;rotation=90;strokeWidth=1;arcSize=45;fillColor=#dae8fc;strokeColor=#6c8ebf;" vertex="1" parent="1">
          <mxGeometry x="1748.5" y="648.25" width="406.5" height="129" as="geometry" />
        </mxCell>
        <mxCell id="dYpTiOb7dCnP9YXtlggP-19" value="MTL" style="text;strokeColor=none;fillColor=none;html=1;align=center;verticalAlign=middle;whiteSpace=wrap;rounded=0;fontSize=60;fontStyle=1;horizontal=1;" vertex="1" parent="1">
          <mxGeometry x="2747" y="92" width="149" height="30" as="geometry" />
        </mxCell>
        <mxCell id="dYpTiOb7dCnP9YXtlggP-20" value="" style="rounded=1;whiteSpace=wrap;html=1;rotation=90;strokeWidth=1;arcSize=45;fillColor=#e1d5e7;strokeColor=#9673a6;fontSize=25;" vertex="1" parent="1">
          <mxGeometry x="2358" y="857" width="435" height="129" as="geometry" />
        </mxCell>
        <mxCell id="dYpTiOb7dCnP9YXtlggP-21" style="edgeStyle=none;rounded=0;orthogonalLoop=1;jettySize=auto;html=1;exitX=1;exitY=0.5;exitDx=0;exitDy=0;entryX=0;entryY=0.5;entryDx=0;entryDy=0;strokeColor=default;strokeWidth=0.5;align=center;verticalAlign=middle;fontFamily=Helvetica;fontSize=25;fontColor=default;labelBackgroundColor=default;startSize=8;endArrow=classic;endSize=8;" edge="1" parent="1" source="dYpTiOb7dCnP9YXtlggP-244" target="dYpTiOb7dCnP9YXtlggP-136">
          <mxGeometry relative="1" as="geometry" />
        </mxCell>
        <mxCell id="dYpTiOb7dCnP9YXtlggP-22" value="" style="rounded=1;whiteSpace=wrap;html=1;rotation=90;strokeWidth=1;arcSize=45;fillColor=#f8cecc;strokeColor=#b85450;fontSize=25;" vertex="1" parent="1">
          <mxGeometry x="741.6000000000004" y="318.09000000000015" width="152.07" height="129" as="geometry" />
        </mxCell>
        <mxCell id="dYpTiOb7dCnP9YXtlggP-23" style="edgeStyle=none;curved=1;rounded=0;orthogonalLoop=1;jettySize=auto;html=1;exitX=1;exitY=0.5;exitDx=0;exitDy=0;entryX=0;entryY=0.5;entryDx=0;entryDy=0;fontSize=12;startSize=8;endSize=8;strokeWidth=0.5;endArrow=classic;endFill=1;sourcePerimeterSpacing=1;" edge="1" parent="1" source="dYpTiOb7dCnP9YXtlggP-148" target="dYpTiOb7dCnP9YXtlggP-199">
          <mxGeometry relative="1" as="geometry" />
        </mxCell>
        <mxCell id="dYpTiOb7dCnP9YXtlggP-24" value="" style="rounded=1;whiteSpace=wrap;html=1;rotation=90;strokeWidth=1;arcSize=45;fillColor=#d5e8d4;strokeColor=#82b366;fontSize=25;" vertex="1" parent="1">
          <mxGeometry x="104.75" y="933.5" width="544" height="129" as="geometry" />
        </mxCell>
        <mxCell id="dYpTiOb7dCnP9YXtlggP-25" style="edgeStyle=none;curved=1;rounded=0;orthogonalLoop=1;jettySize=auto;html=1;exitX=1;exitY=0.5;exitDx=0;exitDy=0;entryX=0;entryY=0.5;entryDx=0;entryDy=0;fontSize=12;startSize=8;endSize=8;strokeWidth=0.5;endArrow=classic;endFill=1;sourcePerimeterSpacing=1;" edge="1" parent="1" source="dYpTiOb7dCnP9YXtlggP-148" target="dYpTiOb7dCnP9YXtlggP-207">
          <mxGeometry relative="1" as="geometry" />
        </mxCell>
        <mxCell id="dYpTiOb7dCnP9YXtlggP-26" value="" style="rounded=1;whiteSpace=wrap;html=1;rotation=90;strokeWidth=1;arcSize=45;fillColor=#e1d5e7;strokeColor=#9673a6;fontSize=25;" vertex="1" parent="1">
          <mxGeometry x="2358" y="407" width="435" height="129" as="geometry" />
        </mxCell>
        <mxCell id="dYpTiOb7dCnP9YXtlggP-27" value="" style="rounded=1;whiteSpace=wrap;html=1;rotation=90;strokeWidth=1;arcSize=45;fillColor=#f8cecc;strokeColor=#b85450;fontSize=25;" vertex="1" parent="1">
          <mxGeometry x="2741.9" y="413.73" width="143.5" height="129" as="geometry" />
        </mxCell>
        <mxCell id="dYpTiOb7dCnP9YXtlggP-28" value="" style="rounded=1;whiteSpace=wrap;html=1;rotation=90;strokeWidth=1;arcSize=45;fillColor=#f8cecc;strokeColor=#b85450;fontSize=25;" vertex="1" parent="1">
          <mxGeometry x="2727.5" y="859.6300000000001" width="143.61" height="129" as="geometry" />
        </mxCell>
        <mxCell id="dYpTiOb7dCnP9YXtlggP-29" style="edgeStyle=none;curved=1;rounded=0;orthogonalLoop=1;jettySize=auto;html=1;exitX=1;exitY=0.5;exitDx=0;exitDy=0;entryX=0;entryY=0.5;entryDx=0;entryDy=0;fontSize=25;startSize=8;endSize=8;strokeWidth=0.5;" edge="1" parent="1" source="dYpTiOb7dCnP9YXtlggP-38" target="dYpTiOb7dCnP9YXtlggP-171">
          <mxGeometry relative="1" as="geometry" />
        </mxCell>
        <mxCell id="dYpTiOb7dCnP9YXtlggP-30" style="edgeStyle=none;curved=1;rounded=0;orthogonalLoop=1;jettySize=auto;html=1;exitX=1;exitY=0.5;exitDx=0;exitDy=0;entryX=0;entryY=0.5;entryDx=0;entryDy=0;fontSize=25;startSize=8;endSize=8;strokeWidth=0.5;" edge="1" parent="1" source="dYpTiOb7dCnP9YXtlggP-253" target="dYpTiOb7dCnP9YXtlggP-13">
          <mxGeometry relative="1" as="geometry" />
        </mxCell>
        <mxCell id="dYpTiOb7dCnP9YXtlggP-31" value="&lt;span style=&quot;color: rgb(0, 0, 0); font-family: Helvetica; font-size: 25px; font-style: normal; font-variant-ligatures: normal; font-variant-caps: normal; font-weight: 400; letter-spacing: normal; orphans: 2; text-align: center; text-indent: 0px; text-transform: none; widows: 2; word-spacing: 0px; -webkit-text-stroke-width: 0px; background-color: rgb(255, 255, 255); text-decoration-thickness: initial; text-decoration-style: initial; text-decoration-color: initial; float: none; display: inline !important;&quot;&gt;y&lt;/span&gt;&lt;sub style=&quot;border-color: var(--border-color); color: rgb(0, 0, 0); font-family: Helvetica; font-style: normal; font-variant-ligatures: normal; font-variant-caps: normal; font-weight: 400; letter-spacing: normal; orphans: 2; text-align: center; text-indent: 0px; text-transform: none; widows: 2; word-spacing: 0px; -webkit-text-stroke-width: 0px; background-color: rgb(255, 255, 255); text-decoration-thickness: initial; text-decoration-style: initial; text-decoration-color: initial;&quot;&gt;2&lt;/sub&gt;" style="ellipse;whiteSpace=wrap;html=1;aspect=fixed;fontSize=25;" vertex="1" parent="1">
          <mxGeometry x="1652.5" y="766.6300000000001" width="80" height="80" as="geometry" />
        </mxCell>
        <mxCell id="dYpTiOb7dCnP9YXtlggP-32" value="Hidden Layer1" style="text;strokeColor=none;fillColor=none;html=1;align=center;verticalAlign=middle;whiteSpace=wrap;rounded=0;fontSize=26;fontColor=#c2d4a0;" vertex="1" parent="1">
          <mxGeometry x="1212.25" y="1034.63" width="149" height="30" as="geometry" />
        </mxCell>
        <mxCell id="dYpTiOb7dCnP9YXtlggP-33" style="edgeStyle=none;curved=1;rounded=0;orthogonalLoop=1;jettySize=auto;html=1;exitX=1;exitY=0.5;exitDx=0;exitDy=0;entryX=0;entryY=0.5;entryDx=0;entryDy=0;fontSize=12;startSize=8;endSize=8;strokeWidth=0.5;" edge="1" parent="1" source="dYpTiOb7dCnP9YXtlggP-147" target="dYpTiOb7dCnP9YXtlggP-88">
          <mxGeometry relative="1" as="geometry" />
        </mxCell>
        <mxCell id="dYpTiOb7dCnP9YXtlggP-34" style="edgeStyle=none;curved=1;rounded=0;orthogonalLoop=1;jettySize=auto;html=1;exitX=1;exitY=0.5;exitDx=0;exitDy=0;entryX=0;entryY=0.5;entryDx=0;entryDy=0;fontSize=12;startSize=8;endSize=8;strokeWidth=0.5;" edge="1" parent="1" source="dYpTiOb7dCnP9YXtlggP-129" target="dYpTiOb7dCnP9YXtlggP-135">
          <mxGeometry relative="1" as="geometry" />
        </mxCell>
        <mxCell id="dYpTiOb7dCnP9YXtlggP-35" style="edgeStyle=none;curved=1;rounded=0;orthogonalLoop=1;jettySize=auto;html=1;exitX=1;exitY=0.5;exitDx=0;exitDy=0;fontSize=26;startSize=8;endSize=8;strokeWidth=0.5;sourcePerimeterSpacing=1;" edge="1" parent="1" source="dYpTiOb7dCnP9YXtlggP-42" target="dYpTiOb7dCnP9YXtlggP-42">
          <mxGeometry relative="1" as="geometry" />
        </mxCell>
        <mxCell id="dYpTiOb7dCnP9YXtlggP-36" value="Output Layer" style="text;strokeColor=none;fillColor=none;html=1;align=center;verticalAlign=middle;whiteSpace=wrap;rounded=0;fontSize=26;fontColor=#c9646e;" vertex="1" parent="1">
          <mxGeometry x="1608.63" y="923.6300000000001" width="167.75" height="30" as="geometry" />
        </mxCell>
        <mxCell id="dYpTiOb7dCnP9YXtlggP-37" style="edgeStyle=none;curved=1;rounded=0;orthogonalLoop=1;jettySize=auto;html=1;exitX=1;exitY=0.5;exitDx=0;exitDy=0;entryX=0;entryY=0.5;entryDx=0;entryDy=0;fontSize=12;startSize=8;endSize=8;strokeWidth=0.5;" edge="1" parent="1" source="dYpTiOb7dCnP9YXtlggP-86" target="dYpTiOb7dCnP9YXtlggP-134">
          <mxGeometry relative="1" as="geometry" />
        </mxCell>
        <mxCell id="dYpTiOb7dCnP9YXtlggP-38" value="h&lt;sub style=&quot;border-color: var(--border-color);&quot;&gt;21&lt;/sub&gt;" style="ellipse;whiteSpace=wrap;html=1;aspect=fixed;fontSize=25;" vertex="1" parent="1">
          <mxGeometry x="541.75" y="143" width="80" height="80" as="geometry" />
        </mxCell>
        <mxCell id="dYpTiOb7dCnP9YXtlggP-39" style="edgeStyle=none;curved=1;rounded=0;orthogonalLoop=1;jettySize=auto;html=1;exitX=1;exitY=0.5;exitDx=0;exitDy=0;entryX=0;entryY=0.5;entryDx=0;entryDy=0;fontSize=25;startSize=8;endSize=8;strokeWidth=0.5;" edge="1" parent="1" source="dYpTiOb7dCnP9YXtlggP-13" target="dYpTiOb7dCnP9YXtlggP-31">
          <mxGeometry relative="1" as="geometry" />
        </mxCell>
        <mxCell id="dYpTiOb7dCnP9YXtlggP-40" style="edgeStyle=none;curved=1;rounded=0;orthogonalLoop=1;jettySize=auto;html=1;exitX=1;exitY=0.5;exitDx=0;exitDy=0;entryX=0;entryY=0.5;entryDx=0;entryDy=0;fontSize=25;startSize=8;endSize=8;strokeWidth=0.5;" edge="1" parent="1" source="dYpTiOb7dCnP9YXtlggP-15" target="dYpTiOb7dCnP9YXtlggP-31">
          <mxGeometry relative="1" as="geometry" />
        </mxCell>
        <mxCell id="dYpTiOb7dCnP9YXtlggP-41" style="edgeStyle=none;curved=1;rounded=0;orthogonalLoop=1;jettySize=auto;html=1;exitX=1;exitY=0.5;exitDx=0;exitDy=0;entryX=0;entryY=0.5;entryDx=0;entryDy=0;fontSize=12;startSize=8;endSize=8;strokeWidth=0.5;endArrow=classic;endFill=1;sourcePerimeterSpacing=1;" edge="1" parent="1" source="dYpTiOb7dCnP9YXtlggP-148" target="dYpTiOb7dCnP9YXtlggP-253">
          <mxGeometry relative="1" as="geometry" />
        </mxCell>
        <mxCell id="dYpTiOb7dCnP9YXtlggP-42" value="" style="rounded=1;whiteSpace=wrap;html=1;rotation=90;strokeWidth=1;arcSize=45;fillColor=#dae8fc;strokeColor=#6c8ebf;" vertex="1" parent="1">
          <mxGeometry x="877" y="668.8800000000001" width="406.5" height="129" as="geometry" />
        </mxCell>
        <mxCell id="dYpTiOb7dCnP9YXtlggP-43" value="" style="rounded=1;whiteSpace=wrap;html=1;rotation=90;strokeWidth=1;arcSize=45;fillColor=#f8cecc;strokeColor=#b85450;fontSize=25;" vertex="1" parent="1">
          <mxGeometry x="740.5700000000006" y="940.5" width="152.07" height="129" as="geometry" />
        </mxCell>
        <mxCell id="dYpTiOb7dCnP9YXtlggP-44" style="edgeStyle=none;rounded=0;orthogonalLoop=1;jettySize=auto;html=1;exitX=1;exitY=0.5;exitDx=0;exitDy=0;entryX=0;entryY=0.5;entryDx=0;entryDy=0;strokeColor=default;strokeWidth=0.5;align=center;verticalAlign=middle;fontFamily=Helvetica;fontSize=25;fontColor=default;labelBackgroundColor=default;startSize=8;endArrow=classic;endSize=8;" edge="1" parent="1" source="dYpTiOb7dCnP9YXtlggP-146" target="dYpTiOb7dCnP9YXtlggP-136">
          <mxGeometry relative="1" as="geometry" />
        </mxCell>
        <mxCell id="dYpTiOb7dCnP9YXtlggP-45" style="edgeStyle=none;curved=1;rounded=0;orthogonalLoop=1;jettySize=auto;html=1;exitX=1;exitY=0.5;exitDx=0;exitDy=0;entryX=0;entryY=0.5;entryDx=0;entryDy=0;fontSize=25;startSize=8;endSize=8;strokeWidth=0.5;" edge="1" parent="1" source="dYpTiOb7dCnP9YXtlggP-141" target="dYpTiOb7dCnP9YXtlggP-217">
          <mxGeometry relative="1" as="geometry" />
        </mxCell>
        <mxCell id="dYpTiOb7dCnP9YXtlggP-46" style="edgeStyle=none;curved=1;rounded=0;orthogonalLoop=1;jettySize=auto;html=1;exitX=1;exitY=0.5;exitDx=0;exitDy=0;entryX=0;entryY=0.5;entryDx=0;entryDy=0;fontSize=12;startSize=8;endSize=8;strokeWidth=0.5;endArrow=classic;endFill=1;sourcePerimeterSpacing=1;" edge="1" parent="1" source="dYpTiOb7dCnP9YXtlggP-49" target="dYpTiOb7dCnP9YXtlggP-76">
          <mxGeometry relative="1" as="geometry" />
        </mxCell>
        <mxCell id="dYpTiOb7dCnP9YXtlggP-47" style="edgeStyle=none;curved=1;rounded=0;orthogonalLoop=1;jettySize=auto;html=1;exitX=1;exitY=0.5;exitDx=0;exitDy=0;entryX=0;entryY=0.5;entryDx=0;entryDy=0;fontSize=12;startSize=8;endSize=8;strokeWidth=0.5;endArrow=classic;endFill=1;sourcePerimeterSpacing=1;" edge="1" parent="1" source="dYpTiOb7dCnP9YXtlggP-50" target="dYpTiOb7dCnP9YXtlggP-77">
          <mxGeometry relative="1" as="geometry" />
        </mxCell>
        <mxCell id="dYpTiOb7dCnP9YXtlggP-48" style="edgeStyle=none;curved=1;rounded=0;orthogonalLoop=1;jettySize=auto;html=1;exitX=1;exitY=0.5;exitDx=0;exitDy=0;entryX=0;entryY=0.5;entryDx=0;entryDy=0;fontSize=12;startSize=8;endSize=8;strokeWidth=0.5;endArrow=classic;endFill=1;sourcePerimeterSpacing=1;" edge="1" parent="1" source="dYpTiOb7dCnP9YXtlggP-49" target="dYpTiOb7dCnP9YXtlggP-85">
          <mxGeometry relative="1" as="geometry" />
        </mxCell>
        <mxCell id="dYpTiOb7dCnP9YXtlggP-49" value="x&lt;sub style=&quot;border-color: var(--border-color);&quot;&gt;2&lt;/sub&gt;" style="ellipse;whiteSpace=wrap;html=1;aspect=fixed;fontSize=25;" vertex="1" parent="1">
          <mxGeometry x="1910.25" y="673" width="80" height="80" as="geometry" />
        </mxCell>
        <mxCell id="dYpTiOb7dCnP9YXtlggP-50" value="x&lt;sub style=&quot;border-color: var(--border-color);&quot;&gt;2&lt;/sub&gt;" style="ellipse;whiteSpace=wrap;html=1;aspect=fixed;fontSize=25;" vertex="1" parent="1">
          <mxGeometry x="130.75" y="322" width="80" height="80" as="geometry" />
        </mxCell>
        <mxCell id="dYpTiOb7dCnP9YXtlggP-51" style="edgeStyle=none;curved=1;rounded=0;orthogonalLoop=1;jettySize=auto;html=1;exitX=1;exitY=0.5;exitDx=0;exitDy=0;entryX=0;entryY=0.5;entryDx=0;entryDy=0;fontSize=25;startSize=8;endSize=8;strokeWidth=0.5;" edge="1" parent="1" source="dYpTiOb7dCnP9YXtlggP-58" target="dYpTiOb7dCnP9YXtlggP-244">
          <mxGeometry relative="1" as="geometry" />
        </mxCell>
        <mxCell id="dYpTiOb7dCnP9YXtlggP-52" style="edgeStyle=none;curved=1;rounded=0;orthogonalLoop=1;jettySize=auto;html=1;exitX=1;exitY=0.5;exitDx=0;exitDy=0;entryX=0;entryY=0.5;entryDx=0;entryDy=0;fontSize=25;startSize=8;endSize=8;strokeWidth=0.5;" edge="1" parent="1" source="dYpTiOb7dCnP9YXtlggP-59" target="dYpTiOb7dCnP9YXtlggP-38">
          <mxGeometry relative="1" as="geometry" />
        </mxCell>
        <mxCell id="dYpTiOb7dCnP9YXtlggP-53" style="edgeStyle=none;curved=1;rounded=0;orthogonalLoop=1;jettySize=auto;html=1;exitX=1;exitY=0.5;exitDx=0;exitDy=0;fontSize=25;startSize=8;endSize=8;strokeWidth=0.5;" edge="1" parent="1" source="dYpTiOb7dCnP9YXtlggP-58" target="dYpTiOb7dCnP9YXtlggP-146">
          <mxGeometry relative="1" as="geometry" />
        </mxCell>
        <mxCell id="dYpTiOb7dCnP9YXtlggP-54" style="edgeStyle=none;curved=1;rounded=0;orthogonalLoop=1;jettySize=auto;html=1;exitX=1;exitY=0.5;exitDx=0;exitDy=0;fontSize=25;startSize=8;endSize=8;strokeWidth=0.5;" edge="1" parent="1" source="dYpTiOb7dCnP9YXtlggP-59" target="dYpTiOb7dCnP9YXtlggP-168">
          <mxGeometry relative="1" as="geometry" />
        </mxCell>
        <mxCell id="dYpTiOb7dCnP9YXtlggP-55" style="edgeStyle=none;curved=1;rounded=0;orthogonalLoop=1;jettySize=auto;html=1;exitX=1;exitY=0.5;exitDx=0;exitDy=0;entryX=0;entryY=0.5;entryDx=0;entryDy=0;fontSize=25;startSize=8;endSize=8;strokeWidth=0.5;" edge="1" parent="1" source="dYpTiOb7dCnP9YXtlggP-58" target="dYpTiOb7dCnP9YXtlggP-86">
          <mxGeometry relative="1" as="geometry" />
        </mxCell>
        <mxCell id="dYpTiOb7dCnP9YXtlggP-56" style="edgeStyle=none;curved=1;rounded=0;orthogonalLoop=1;jettySize=auto;html=1;exitX=1;exitY=0.5;exitDx=0;exitDy=0;entryX=0;entryY=0.5;entryDx=0;entryDy=0;fontSize=25;startSize=8;endSize=8;strokeWidth=0.5;" edge="1" parent="1" source="dYpTiOb7dCnP9YXtlggP-59" target="dYpTiOb7dCnP9YXtlggP-178">
          <mxGeometry relative="1" as="geometry" />
        </mxCell>
        <mxCell id="dYpTiOb7dCnP9YXtlggP-57" style="edgeStyle=none;curved=1;rounded=0;orthogonalLoop=1;jettySize=auto;html=1;exitX=1;exitY=0.5;exitDx=0;exitDy=0;entryX=0;entryY=0.5;entryDx=0;entryDy=0;fontSize=25;startSize=8;endSize=8;strokeWidth=0.5;" edge="1" parent="1" source="dYpTiOb7dCnP9YXtlggP-58" target="dYpTiOb7dCnP9YXtlggP-87">
          <mxGeometry relative="1" as="geometry" />
        </mxCell>
        <mxCell id="dYpTiOb7dCnP9YXtlggP-58" value="h&lt;sub style=&quot;border-color: var(--border-color);&quot;&gt;12&lt;/sub&gt;" style="ellipse;whiteSpace=wrap;html=1;aspect=fixed;fontSize=25;" vertex="1" parent="1">
          <mxGeometry x="2118.25" y="622" width="80" height="80" as="geometry" />
        </mxCell>
        <mxCell id="dYpTiOb7dCnP9YXtlggP-59" value="h&lt;sub style=&quot;border-color: var(--border-color);&quot;&gt;12&lt;/sub&gt;" style="ellipse;whiteSpace=wrap;html=1;aspect=fixed;fontSize=25;" vertex="1" parent="1">
          <mxGeometry x="338.75" y="271" width="80" height="80" as="geometry" />
        </mxCell>
        <mxCell id="dYpTiOb7dCnP9YXtlggP-60" style="edgeStyle=none;curved=1;rounded=0;orthogonalLoop=1;jettySize=auto;html=1;exitX=1;exitY=0.5;exitDx=0;exitDy=0;entryX=0;entryY=0.5;entryDx=0;entryDy=0;fontSize=12;startSize=8;endSize=8;strokeWidth=0.5;endArrow=classic;endFill=1;sourcePerimeterSpacing=1;" edge="1" parent="1" source="dYpTiOb7dCnP9YXtlggP-67" target="dYpTiOb7dCnP9YXtlggP-236">
          <mxGeometry relative="1" as="geometry" />
        </mxCell>
        <mxCell id="dYpTiOb7dCnP9YXtlggP-61" style="edgeStyle=none;curved=1;rounded=0;orthogonalLoop=1;jettySize=auto;html=1;exitX=1;exitY=0.5;exitDx=0;exitDy=0;entryX=0;entryY=0.5;entryDx=0;entryDy=0;fontSize=12;startSize=8;endSize=8;strokeWidth=0.5;endArrow=classic;endFill=1;sourcePerimeterSpacing=1;" edge="1" parent="1" source="dYpTiOb7dCnP9YXtlggP-68" target="dYpTiOb7dCnP9YXtlggP-12">
          <mxGeometry relative="1" as="geometry" />
        </mxCell>
        <mxCell id="dYpTiOb7dCnP9YXtlggP-62" style="edgeStyle=none;curved=1;rounded=0;orthogonalLoop=1;jettySize=auto;html=1;exitX=1;exitY=0.5;exitDx=0;exitDy=0;entryX=0;entryY=0.5;entryDx=0;entryDy=0;fontSize=12;startSize=8;endSize=8;strokeWidth=0.5;endArrow=classic;endFill=1;sourcePerimeterSpacing=1;" edge="1" parent="1" source="dYpTiOb7dCnP9YXtlggP-67" target="dYpTiOb7dCnP9YXtlggP-58">
          <mxGeometry relative="1" as="geometry" />
        </mxCell>
        <mxCell id="dYpTiOb7dCnP9YXtlggP-63" style="edgeStyle=none;curved=1;rounded=0;orthogonalLoop=1;jettySize=auto;html=1;exitX=1;exitY=0.5;exitDx=0;exitDy=0;entryX=0;entryY=0.5;entryDx=0;entryDy=0;fontSize=12;startSize=8;endSize=8;strokeWidth=0.5;endArrow=classic;endFill=1;sourcePerimeterSpacing=1;" edge="1" parent="1" source="dYpTiOb7dCnP9YXtlggP-68" target="dYpTiOb7dCnP9YXtlggP-59">
          <mxGeometry relative="1" as="geometry" />
        </mxCell>
        <mxCell id="dYpTiOb7dCnP9YXtlggP-64" style="edgeStyle=none;curved=1;rounded=0;orthogonalLoop=1;jettySize=auto;html=1;exitX=1;exitY=0.5;exitDx=0;exitDy=0;entryX=0;entryY=0.5;entryDx=0;entryDy=0;fontSize=12;startSize=8;endSize=8;strokeWidth=0.5;endArrow=classic;endFill=1;sourcePerimeterSpacing=1;" edge="1" parent="1" source="dYpTiOb7dCnP9YXtlggP-67" target="dYpTiOb7dCnP9YXtlggP-76">
          <mxGeometry relative="1" as="geometry" />
        </mxCell>
        <mxCell id="dYpTiOb7dCnP9YXtlggP-65" style="edgeStyle=none;curved=1;rounded=0;orthogonalLoop=1;jettySize=auto;html=1;exitX=1;exitY=0.5;exitDx=0;exitDy=0;entryX=0;entryY=0.5;entryDx=0;entryDy=0;fontSize=12;startSize=8;endSize=8;strokeWidth=0.5;endArrow=classic;endFill=1;sourcePerimeterSpacing=1;" edge="1" parent="1" source="dYpTiOb7dCnP9YXtlggP-68" target="dYpTiOb7dCnP9YXtlggP-77">
          <mxGeometry relative="1" as="geometry" />
        </mxCell>
        <mxCell id="dYpTiOb7dCnP9YXtlggP-66" style="edgeStyle=none;curved=1;rounded=0;orthogonalLoop=1;jettySize=auto;html=1;exitX=1;exitY=0.5;exitDx=0;exitDy=0;entryX=0;entryY=0.5;entryDx=0;entryDy=0;fontSize=12;startSize=8;endSize=8;strokeWidth=0.5;endArrow=classic;endFill=1;sourcePerimeterSpacing=1;" edge="1" parent="1" source="dYpTiOb7dCnP9YXtlggP-67" target="dYpTiOb7dCnP9YXtlggP-85">
          <mxGeometry relative="1" as="geometry" />
        </mxCell>
        <mxCell id="dYpTiOb7dCnP9YXtlggP-67" value="x&lt;sub style=&quot;border-color: var(--border-color);&quot;&gt;3&lt;/sub&gt;" style="ellipse;whiteSpace=wrap;html=1;aspect=fixed;fontSize=25;" vertex="1" parent="1">
          <mxGeometry x="1910.25" y="798" width="80" height="80" as="geometry" />
        </mxCell>
        <mxCell id="dYpTiOb7dCnP9YXtlggP-68" value="x&lt;sub style=&quot;border-color: var(--border-color);&quot;&gt;3&lt;/sub&gt;" style="ellipse;whiteSpace=wrap;html=1;aspect=fixed;fontSize=25;" vertex="1" parent="1">
          <mxGeometry x="130.75" y="447" width="80" height="80" as="geometry" />
        </mxCell>
        <mxCell id="dYpTiOb7dCnP9YXtlggP-69" style="edgeStyle=none;curved=1;rounded=0;orthogonalLoop=1;jettySize=auto;html=1;exitX=1;exitY=0.5;exitDx=0;exitDy=0;entryX=0;entryY=0.5;entryDx=0;entryDy=0;fontSize=25;startSize=8;endSize=8;strokeWidth=0.5;" edge="1" parent="1" source="dYpTiOb7dCnP9YXtlggP-76" target="dYpTiOb7dCnP9YXtlggP-244">
          <mxGeometry relative="1" as="geometry" />
        </mxCell>
        <mxCell id="dYpTiOb7dCnP9YXtlggP-70" style="edgeStyle=none;curved=1;rounded=0;orthogonalLoop=1;jettySize=auto;html=1;exitX=1;exitY=0.5;exitDx=0;exitDy=0;entryX=0;entryY=0.5;entryDx=0;entryDy=0;fontSize=25;startSize=8;endSize=8;strokeWidth=0.5;" edge="1" parent="1" source="dYpTiOb7dCnP9YXtlggP-77" target="dYpTiOb7dCnP9YXtlggP-38">
          <mxGeometry relative="1" as="geometry" />
        </mxCell>
        <mxCell id="dYpTiOb7dCnP9YXtlggP-71" style="edgeStyle=none;curved=1;rounded=0;orthogonalLoop=1;jettySize=auto;html=1;exitX=1;exitY=0.5;exitDx=0;exitDy=0;entryX=0;entryY=0.5;entryDx=0;entryDy=0;fontSize=25;startSize=8;endSize=8;strokeWidth=0.5;" edge="1" parent="1" source="dYpTiOb7dCnP9YXtlggP-76" target="dYpTiOb7dCnP9YXtlggP-146">
          <mxGeometry relative="1" as="geometry" />
        </mxCell>
        <mxCell id="dYpTiOb7dCnP9YXtlggP-72" style="edgeStyle=none;curved=1;rounded=0;orthogonalLoop=1;jettySize=auto;html=1;exitX=1;exitY=0.5;exitDx=0;exitDy=0;entryX=0;entryY=0.5;entryDx=0;entryDy=0;fontSize=25;startSize=8;endSize=8;strokeWidth=0.5;" edge="1" parent="1" source="dYpTiOb7dCnP9YXtlggP-77" target="dYpTiOb7dCnP9YXtlggP-168">
          <mxGeometry relative="1" as="geometry" />
        </mxCell>
        <mxCell id="dYpTiOb7dCnP9YXtlggP-73" style="edgeStyle=none;curved=1;rounded=0;orthogonalLoop=1;jettySize=auto;html=1;exitX=1;exitY=0.5;exitDx=0;exitDy=0;entryX=0;entryY=0.5;entryDx=0;entryDy=0;fontSize=25;startSize=8;endSize=8;strokeWidth=0.5;" edge="1" parent="1" source="dYpTiOb7dCnP9YXtlggP-76" target="dYpTiOb7dCnP9YXtlggP-86">
          <mxGeometry relative="1" as="geometry" />
        </mxCell>
        <mxCell id="dYpTiOb7dCnP9YXtlggP-74" style="edgeStyle=none;curved=1;rounded=0;orthogonalLoop=1;jettySize=auto;html=1;exitX=1;exitY=0.5;exitDx=0;exitDy=0;entryX=0;entryY=0.5;entryDx=0;entryDy=0;fontSize=25;startSize=8;endSize=8;strokeWidth=0.5;" edge="1" parent="1" source="dYpTiOb7dCnP9YXtlggP-77" target="dYpTiOb7dCnP9YXtlggP-178">
          <mxGeometry relative="1" as="geometry" />
        </mxCell>
        <mxCell id="dYpTiOb7dCnP9YXtlggP-75" style="edgeStyle=none;curved=1;rounded=0;orthogonalLoop=1;jettySize=auto;html=1;exitX=1;exitY=0.5;exitDx=0;exitDy=0;entryX=0;entryY=0.5;entryDx=0;entryDy=0;fontSize=25;startSize=8;endSize=8;strokeWidth=0.5;" edge="1" parent="1" source="dYpTiOb7dCnP9YXtlggP-76" target="dYpTiOb7dCnP9YXtlggP-87">
          <mxGeometry relative="1" as="geometry" />
        </mxCell>
        <mxCell id="dYpTiOb7dCnP9YXtlggP-76" value="h&lt;sub style=&quot;border-color: var(--border-color);&quot;&gt;13&lt;/sub&gt;" style="ellipse;whiteSpace=wrap;html=1;aspect=fixed;fontSize=25;" vertex="1" parent="1">
          <mxGeometry x="2118.25" y="748.5" width="80" height="80" as="geometry" />
        </mxCell>
        <mxCell id="dYpTiOb7dCnP9YXtlggP-77" value="h&lt;sub style=&quot;border-color: var(--border-color);&quot;&gt;13&lt;/sub&gt;" style="ellipse;whiteSpace=wrap;html=1;aspect=fixed;fontSize=25;" vertex="1" parent="1">
          <mxGeometry x="338.75" y="397.5" width="80" height="80" as="geometry" />
        </mxCell>
        <mxCell id="dYpTiOb7dCnP9YXtlggP-78" style="edgeStyle=none;curved=1;rounded=0;orthogonalLoop=1;jettySize=auto;html=1;exitX=1;exitY=0.5;exitDx=0;exitDy=0;entryX=0;entryY=0.5;entryDx=0;entryDy=0;fontSize=25;startSize=8;endSize=8;strokeWidth=0.5;" edge="1" parent="1" source="dYpTiOb7dCnP9YXtlggP-85" target="dYpTiOb7dCnP9YXtlggP-244">
          <mxGeometry relative="1" as="geometry" />
        </mxCell>
        <mxCell id="dYpTiOb7dCnP9YXtlggP-79" style="edgeStyle=none;curved=1;rounded=0;orthogonalLoop=1;jettySize=auto;html=1;exitX=1;exitY=0.5;exitDx=0;exitDy=0;entryX=0;entryY=0.5;entryDx=0;entryDy=0;fontSize=25;startSize=8;endSize=8;strokeWidth=0.5;" edge="1" parent="1" source="dYpTiOb7dCnP9YXtlggP-143" target="dYpTiOb7dCnP9YXtlggP-38">
          <mxGeometry relative="1" as="geometry" />
        </mxCell>
        <mxCell id="dYpTiOb7dCnP9YXtlggP-80" style="edgeStyle=none;curved=1;rounded=0;orthogonalLoop=1;jettySize=auto;html=1;exitX=1;exitY=0.5;exitDx=0;exitDy=0;entryX=0;entryY=0.5;entryDx=0;entryDy=0;fontSize=25;startSize=8;endSize=8;strokeWidth=0.5;" edge="1" parent="1" source="dYpTiOb7dCnP9YXtlggP-85" target="dYpTiOb7dCnP9YXtlggP-146">
          <mxGeometry relative="1" as="geometry" />
        </mxCell>
        <mxCell id="dYpTiOb7dCnP9YXtlggP-81" style="edgeStyle=none;curved=1;rounded=0;orthogonalLoop=1;jettySize=auto;html=1;exitX=1;exitY=0.5;exitDx=0;exitDy=0;entryX=0;entryY=0.5;entryDx=0;entryDy=0;fontSize=25;startSize=8;endSize=8;strokeWidth=0.5;" edge="1" parent="1" source="dYpTiOb7dCnP9YXtlggP-143" target="dYpTiOb7dCnP9YXtlggP-168">
          <mxGeometry relative="1" as="geometry" />
        </mxCell>
        <mxCell id="dYpTiOb7dCnP9YXtlggP-82" style="edgeStyle=none;curved=1;rounded=0;orthogonalLoop=1;jettySize=auto;html=1;exitX=1;exitY=0.5;exitDx=0;exitDy=0;entryX=0;entryY=0.5;entryDx=0;entryDy=0;fontSize=25;startSize=8;endSize=8;strokeWidth=0.5;" edge="1" parent="1" source="dYpTiOb7dCnP9YXtlggP-85" target="dYpTiOb7dCnP9YXtlggP-86">
          <mxGeometry relative="1" as="geometry" />
        </mxCell>
        <mxCell id="dYpTiOb7dCnP9YXtlggP-83" style="edgeStyle=none;curved=1;rounded=0;orthogonalLoop=1;jettySize=auto;html=1;exitX=1;exitY=0.5;exitDx=0;exitDy=0;entryX=0;entryY=0.5;entryDx=0;entryDy=0;fontSize=25;startSize=8;endSize=8;strokeWidth=0.5;" edge="1" parent="1" source="dYpTiOb7dCnP9YXtlggP-143" target="dYpTiOb7dCnP9YXtlggP-178">
          <mxGeometry relative="1" as="geometry" />
        </mxCell>
        <mxCell id="dYpTiOb7dCnP9YXtlggP-84" style="edgeStyle=none;curved=1;rounded=0;orthogonalLoop=1;jettySize=auto;html=1;exitX=1;exitY=0.5;exitDx=0;exitDy=0;entryX=0;entryY=0.5;entryDx=0;entryDy=0;fontSize=25;startSize=8;endSize=8;strokeWidth=0.5;" edge="1" parent="1" source="dYpTiOb7dCnP9YXtlggP-85" target="dYpTiOb7dCnP9YXtlggP-87">
          <mxGeometry relative="1" as="geometry" />
        </mxCell>
        <mxCell id="dYpTiOb7dCnP9YXtlggP-85" value="h&lt;span style=&quot;font-size: 20.8333px;&quot;&gt;14&lt;/span&gt;" style="ellipse;whiteSpace=wrap;html=1;aspect=fixed;fontSize=25;" vertex="1" parent="1">
          <mxGeometry x="2118.25" y="864.5" width="80" height="80" as="geometry" />
        </mxCell>
        <mxCell id="dYpTiOb7dCnP9YXtlggP-86" value="h&lt;sub style=&quot;border-color: var(--border-color);&quot;&gt;23&lt;/sub&gt;" style="ellipse;whiteSpace=wrap;html=1;aspect=fixed;fontSize=25;" vertex="1" parent="1">
          <mxGeometry x="2321.25" y="748.5" width="80" height="80" as="geometry" />
        </mxCell>
        <mxCell id="dYpTiOb7dCnP9YXtlggP-87" value="h&lt;sub style=&quot;border-color: var(--border-color);&quot;&gt;24&lt;/sub&gt;" style="ellipse;whiteSpace=wrap;html=1;aspect=fixed;fontSize=25;" vertex="1" parent="1">
          <mxGeometry x="2321.25" y="864.5" width="80" height="80" as="geometry" />
        </mxCell>
        <mxCell id="dYpTiOb7dCnP9YXtlggP-88" value="y&lt;sub style=&quot;border-color: var(--border-color);&quot;&gt;1&lt;/sub&gt;" style="ellipse;whiteSpace=wrap;html=1;aspect=fixed;fontSize=25;" vertex="1" parent="1">
          <mxGeometry x="2773.65" y="437.4200000000001" width="80" height="80" as="geometry" />
        </mxCell>
        <mxCell id="dYpTiOb7dCnP9YXtlggP-89" style="edgeStyle=none;curved=1;rounded=0;orthogonalLoop=1;jettySize=auto;html=1;exitX=1;exitY=0.5;exitDx=0;exitDy=0;fontSize=26;startSize=8;endSize=8;strokeWidth=0.5;sourcePerimeterSpacing=1;" edge="1" parent="1" source="dYpTiOb7dCnP9YXtlggP-18" target="dYpTiOb7dCnP9YXtlggP-18">
          <mxGeometry relative="1" as="geometry" />
        </mxCell>
        <mxCell id="dYpTiOb7dCnP9YXtlggP-90" value="Input Layer" style="text;strokeColor=none;fillColor=none;html=1;align=center;verticalAlign=middle;whiteSpace=wrap;rounded=0;fontSize=26;fontFamily=Helvetica;fontColor=#6c8ebf;" vertex="1" parent="1">
          <mxGeometry x="1875.75" y="944.5" width="149" height="30" as="geometry" />
        </mxCell>
        <mxCell id="dYpTiOb7dCnP9YXtlggP-91" value="Hidden Layer1" style="text;strokeColor=none;fillColor=none;html=1;align=center;verticalAlign=middle;whiteSpace=wrap;rounded=0;fontSize=26;fontColor=#c2d4a0;" vertex="1" parent="1">
          <mxGeometry x="2083.75" y="1014" width="149" height="30" as="geometry" />
        </mxCell>
        <mxCell id="dYpTiOb7dCnP9YXtlggP-92" value="Output Layer" style="text;strokeColor=none;fillColor=none;html=1;align=center;verticalAlign=middle;whiteSpace=wrap;rounded=0;fontSize=26;fontColor=#c9646e;" vertex="1" parent="1">
          <mxGeometry x="2732" y="561.5" width="167.75" height="30" as="geometry" />
        </mxCell>
        <mxCell id="dYpTiOb7dCnP9YXtlggP-93" value="Hidden Layer2" style="text;strokeColor=none;fillColor=none;html=1;align=center;verticalAlign=middle;whiteSpace=wrap;rounded=0;fontSize=26;fontColor=#c2d4a0;" vertex="1" parent="1">
          <mxGeometry x="2286.75" y="1014" width="149" height="30" as="geometry" />
        </mxCell>
        <mxCell id="dYpTiOb7dCnP9YXtlggP-94" value="Hidden Layer2" style="text;strokeColor=none;fillColor=none;html=1;align=center;verticalAlign=middle;whiteSpace=wrap;rounded=0;fontSize=26;fontColor=#c2d4a0;" vertex="1" parent="1">
          <mxGeometry x="505.25" y="655" width="149" height="30" as="geometry" />
        </mxCell>
        <mxCell id="dYpTiOb7dCnP9YXtlggP-95" style="edgeStyle=none;curved=1;rounded=0;orthogonalLoop=1;jettySize=auto;html=1;exitX=1;exitY=0.5;exitDx=0;exitDy=0;entryX=0;entryY=0.5;entryDx=0;entryDy=0;fontSize=12;startSize=8;endSize=8;strokeWidth=0.5;endArrow=classic;endFill=1;sourcePerimeterSpacing=1;" edge="1" parent="1" source="dYpTiOb7dCnP9YXtlggP-125" target="dYpTiOb7dCnP9YXtlggP-141">
          <mxGeometry relative="1" as="geometry" />
        </mxCell>
        <mxCell id="dYpTiOb7dCnP9YXtlggP-96" style="edgeStyle=none;curved=1;rounded=0;orthogonalLoop=1;jettySize=auto;html=1;exitX=1;exitY=0.5;exitDx=0;exitDy=0;entryX=0;entryY=0.5;entryDx=0;entryDy=0;fontSize=12;startSize=8;endSize=8;strokeWidth=0.5;endArrow=classic;endFill=1;sourcePerimeterSpacing=1;" edge="1" parent="1" source="dYpTiOb7dCnP9YXtlggP-224" target="dYpTiOb7dCnP9YXtlggP-143">
          <mxGeometry relative="1" as="geometry" />
        </mxCell>
        <mxCell id="dYpTiOb7dCnP9YXtlggP-97" style="edgeStyle=none;curved=1;rounded=0;orthogonalLoop=1;jettySize=auto;html=1;exitX=1;exitY=0.5;exitDx=0;exitDy=0;entryX=0;entryY=0.5;entryDx=0;entryDy=0;fontSize=25;startSize=8;endSize=8;strokeWidth=0.5;" edge="1" parent="1" source="dYpTiOb7dCnP9YXtlggP-12" target="dYpTiOb7dCnP9YXtlggP-107">
          <mxGeometry relative="1" as="geometry" />
        </mxCell>
        <mxCell id="dYpTiOb7dCnP9YXtlggP-98" style="edgeStyle=none;curved=1;rounded=0;orthogonalLoop=1;jettySize=auto;html=1;exitX=1;exitY=0.5;exitDx=0;exitDy=0;entryX=0;entryY=0.5;entryDx=0;entryDy=0;fontSize=25;startSize=8;endSize=8;strokeWidth=0.5;" edge="1" parent="1" source="dYpTiOb7dCnP9YXtlggP-149" target="dYpTiOb7dCnP9YXtlggP-251">
          <mxGeometry relative="1" as="geometry" />
        </mxCell>
        <mxCell id="dYpTiOb7dCnP9YXtlggP-99" style="edgeStyle=none;curved=1;rounded=0;orthogonalLoop=1;jettySize=auto;html=1;exitX=1;exitY=0.5;exitDx=0;exitDy=0;entryX=0;entryY=0.5;entryDx=0;entryDy=0;fontSize=12;startSize=8;endSize=8;strokeWidth=0.5;endArrow=classic;endFill=1;sourcePerimeterSpacing=1;" edge="1" parent="1" source="dYpTiOb7dCnP9YXtlggP-50" target="dYpTiOb7dCnP9YXtlggP-143">
          <mxGeometry relative="1" as="geometry" />
        </mxCell>
        <mxCell id="dYpTiOb7dCnP9YXtlggP-100" style="edgeStyle=none;curved=1;rounded=0;orthogonalLoop=1;jettySize=auto;html=1;exitX=1;exitY=0.5;exitDx=0;exitDy=0;entryX=0;entryY=0.5;entryDx=0;entryDy=0;fontSize=25;startSize=8;endSize=8;strokeWidth=0.5;" edge="1" parent="1" source="dYpTiOb7dCnP9YXtlggP-59" target="dYpTiOb7dCnP9YXtlggP-107">
          <mxGeometry relative="1" as="geometry" />
        </mxCell>
        <mxCell id="dYpTiOb7dCnP9YXtlggP-101" style="edgeStyle=none;curved=1;rounded=0;orthogonalLoop=1;jettySize=auto;html=1;exitX=1;exitY=0.5;exitDx=0;exitDy=0;entryX=0;entryY=0.5;entryDx=0;entryDy=0;fontSize=12;startSize=8;endSize=8;strokeWidth=0.5;endArrow=classic;endFill=1;sourcePerimeterSpacing=1;" edge="1" parent="1" source="dYpTiOb7dCnP9YXtlggP-68" target="dYpTiOb7dCnP9YXtlggP-143">
          <mxGeometry relative="1" as="geometry" />
        </mxCell>
        <mxCell id="dYpTiOb7dCnP9YXtlggP-102" style="edgeStyle=none;curved=1;rounded=0;orthogonalLoop=1;jettySize=auto;html=1;exitX=1;exitY=0.5;exitDx=0;exitDy=0;entryX=0;entryY=0.5;entryDx=0;entryDy=0;fontSize=25;startSize=8;endSize=8;strokeWidth=0.5;" edge="1" parent="1" source="dYpTiOb7dCnP9YXtlggP-77" target="dYpTiOb7dCnP9YXtlggP-107">
          <mxGeometry relative="1" as="geometry" />
        </mxCell>
        <mxCell id="dYpTiOb7dCnP9YXtlggP-103" style="edgeStyle=none;curved=1;rounded=0;orthogonalLoop=1;jettySize=auto;html=1;exitX=1;exitY=0.5;exitDx=0;exitDy=0;entryX=0;entryY=0.5;entryDx=0;entryDy=0;fontSize=25;startSize=8;endSize=8;strokeWidth=0.5;" edge="1" parent="1" source="dYpTiOb7dCnP9YXtlggP-143" target="dYpTiOb7dCnP9YXtlggP-107">
          <mxGeometry relative="1" as="geometry" />
        </mxCell>
        <mxCell id="dYpTiOb7dCnP9YXtlggP-104" style="edgeStyle=none;curved=1;rounded=0;orthogonalLoop=1;jettySize=auto;html=1;exitX=1;exitY=0.5;exitDx=0;exitDy=0;entryX=0;entryY=0.5;entryDx=0;entryDy=0;fontSize=25;startSize=8;endSize=8;strokeWidth=0.5;" edge="1" parent="1" source="dYpTiOb7dCnP9YXtlggP-178" target="dYpTiOb7dCnP9YXtlggP-171">
          <mxGeometry relative="1" as="geometry" />
        </mxCell>
        <mxCell id="dYpTiOb7dCnP9YXtlggP-105" style="edgeStyle=none;curved=1;rounded=0;orthogonalLoop=1;jettySize=auto;html=1;exitX=1;exitY=0.5;exitDx=0;exitDy=0;entryX=0;entryY=0.5;entryDx=0;entryDy=0;fontSize=25;startSize=8;endSize=8;strokeWidth=0.5;" edge="1" parent="1" source="dYpTiOb7dCnP9YXtlggP-229" target="dYpTiOb7dCnP9YXtlggP-251">
          <mxGeometry relative="1" as="geometry" />
        </mxCell>
        <mxCell id="dYpTiOb7dCnP9YXtlggP-106" style="edgeStyle=none;curved=1;rounded=0;orthogonalLoop=1;jettySize=auto;html=1;exitX=1;exitY=0.5;exitDx=0;exitDy=0;entryX=0;entryY=0.5;entryDx=0;entryDy=0;fontSize=12;startSize=8;endSize=8;strokeWidth=0.5;endArrow=classic;endFill=1;sourcePerimeterSpacing=1;" edge="1" parent="1" source="dYpTiOb7dCnP9YXtlggP-161" target="dYpTiOb7dCnP9YXtlggP-190">
          <mxGeometry relative="1" as="geometry" />
        </mxCell>
        <mxCell id="dYpTiOb7dCnP9YXtlggP-107" value="h&lt;sub style=&quot;border-color: var(--border-color);&quot;&gt;24&lt;/sub&gt;" style="ellipse;whiteSpace=wrap;html=1;aspect=fixed;fontSize=25;" vertex="1" parent="1">
          <mxGeometry x="541.75" y="513.5" width="80" height="80" as="geometry" />
        </mxCell>
        <mxCell id="dYpTiOb7dCnP9YXtlggP-108" style="edgeStyle=none;curved=1;rounded=0;orthogonalLoop=1;jettySize=auto;html=1;exitX=1;exitY=0.5;exitDx=0;exitDy=0;fontSize=25;startSize=8;endSize=8;strokeWidth=0.5;" edge="1" parent="1" source="dYpTiOb7dCnP9YXtlggP-170" target="dYpTiOb7dCnP9YXtlggP-209">
          <mxGeometry relative="1" as="geometry" />
        </mxCell>
        <mxCell id="dYpTiOb7dCnP9YXtlggP-109" value="Input Layer" style="text;strokeColor=none;fillColor=none;html=1;align=center;verticalAlign=middle;whiteSpace=wrap;rounded=0;fontSize=26;fontColor=#6c8ebf;" vertex="1" parent="1">
          <mxGeometry x="96.25" y="593.5" width="149" height="30" as="geometry" />
        </mxCell>
        <mxCell id="dYpTiOb7dCnP9YXtlggP-110" style="edgeStyle=none;curved=1;rounded=0;orthogonalLoop=1;jettySize=auto;html=1;exitX=1;exitY=0.5;exitDx=0;exitDy=0;entryX=0;entryY=0.5;entryDx=0;entryDy=0;fontSize=25;startSize=8;endSize=8;strokeWidth=0.5;" edge="1" parent="1" source="dYpTiOb7dCnP9YXtlggP-170" target="dYpTiOb7dCnP9YXtlggP-217">
          <mxGeometry relative="1" as="geometry" />
        </mxCell>
        <mxCell id="dYpTiOb7dCnP9YXtlggP-111" value="Hidden Layer1" style="text;strokeColor=none;fillColor=none;html=1;align=center;verticalAlign=middle;whiteSpace=wrap;rounded=0;fontSize=26;fontColor=#c2d4a0;" vertex="1" parent="1">
          <mxGeometry x="302.25" y="655" width="149" height="30" as="geometry" />
        </mxCell>
        <mxCell id="dYpTiOb7dCnP9YXtlggP-112" value="SOR" style="text;strokeColor=none;fillColor=none;html=1;align=center;verticalAlign=middle;whiteSpace=wrap;rounded=0;fontSize=60;fontStyle=1;horizontal=1;" vertex="1" parent="1">
          <mxGeometry x="724" y="92" width="149" height="30" as="geometry" />
        </mxCell>
        <mxCell id="dYpTiOb7dCnP9YXtlggP-113" style="edgeStyle=none;curved=1;rounded=0;orthogonalLoop=1;jettySize=auto;html=1;exitX=1;exitY=0.5;exitDx=0;exitDy=0;entryX=0;entryY=0.5;entryDx=0;entryDy=0;fontSize=12;startSize=8;endSize=8;strokeWidth=0.5;endArrow=classic;endFill=1;sourcePerimeterSpacing=1;" edge="1" parent="1" source="dYpTiOb7dCnP9YXtlggP-180" target="dYpTiOb7dCnP9YXtlggP-190">
          <mxGeometry relative="1" as="geometry" />
        </mxCell>
        <mxCell id="dYpTiOb7dCnP9YXtlggP-114" style="edgeStyle=none;curved=1;rounded=0;orthogonalLoop=1;jettySize=auto;html=1;exitX=1;exitY=0.5;exitDx=0;exitDy=0;entryX=0;entryY=0.5;entryDx=0;entryDy=0;fontSize=12;startSize=8;endSize=8;strokeWidth=0.5;endArrow=classic;endFill=1;sourcePerimeterSpacing=1;" edge="1" parent="1" source="dYpTiOb7dCnP9YXtlggP-180" target="dYpTiOb7dCnP9YXtlggP-200">
          <mxGeometry relative="1" as="geometry" />
        </mxCell>
        <mxCell id="dYpTiOb7dCnP9YXtlggP-115" style="edgeStyle=none;curved=1;rounded=0;orthogonalLoop=1;jettySize=auto;html=1;exitX=1;exitY=0.5;exitDx=0;exitDy=0;entryX=0;entryY=0.5;entryDx=0;entryDy=0;fontSize=25;startSize=8;endSize=8;strokeWidth=0.5;" edge="1" parent="1" source="dYpTiOb7dCnP9YXtlggP-190" target="dYpTiOb7dCnP9YXtlggP-149">
          <mxGeometry relative="1" as="geometry" />
        </mxCell>
        <mxCell id="dYpTiOb7dCnP9YXtlggP-116" style="edgeStyle=none;curved=1;rounded=0;orthogonalLoop=1;jettySize=auto;html=1;exitX=1;exitY=0.5;exitDx=0;exitDy=0;entryX=0;entryY=0.5;entryDx=0;entryDy=0;fontSize=25;startSize=8;endSize=8;strokeWidth=0.5;" edge="1" parent="1" source="dYpTiOb7dCnP9YXtlggP-190" target="dYpTiOb7dCnP9YXtlggP-209">
          <mxGeometry relative="1" as="geometry" />
        </mxCell>
        <mxCell id="dYpTiOb7dCnP9YXtlggP-117" style="edgeStyle=none;curved=1;rounded=0;orthogonalLoop=1;jettySize=auto;html=1;exitX=1;exitY=0.5;exitDx=0;exitDy=0;entryX=0;entryY=0.5;entryDx=0;entryDy=0;fontSize=25;startSize=8;endSize=8;strokeWidth=0.5;" edge="1" parent="1" source="dYpTiOb7dCnP9YXtlggP-190" target="dYpTiOb7dCnP9YXtlggP-217">
          <mxGeometry relative="1" as="geometry" />
        </mxCell>
        <mxCell id="dYpTiOb7dCnP9YXtlggP-118" style="edgeStyle=none;curved=1;rounded=0;orthogonalLoop=1;jettySize=auto;html=1;exitX=1;exitY=0.5;exitDx=0;exitDy=0;entryX=0;entryY=0.5;entryDx=0;entryDy=0;fontSize=25;startSize=8;endSize=8;strokeWidth=0.5;" edge="1" parent="1" source="dYpTiOb7dCnP9YXtlggP-190" target="dYpTiOb7dCnP9YXtlggP-229">
          <mxGeometry relative="1" as="geometry" />
        </mxCell>
        <mxCell id="dYpTiOb7dCnP9YXtlggP-119" style="edgeStyle=none;curved=1;rounded=0;orthogonalLoop=1;jettySize=auto;html=1;exitX=1;exitY=0.5;exitDx=0;exitDy=0;entryX=0;entryY=0.5;entryDx=0;entryDy=0;fontSize=25;startSize=8;endSize=8;strokeWidth=0.5;" edge="1" parent="1" source="dYpTiOb7dCnP9YXtlggP-200" target="dYpTiOb7dCnP9YXtlggP-149">
          <mxGeometry relative="1" as="geometry" />
        </mxCell>
        <mxCell id="dYpTiOb7dCnP9YXtlggP-120" style="edgeStyle=none;curved=1;rounded=0;orthogonalLoop=1;jettySize=auto;html=1;exitX=1;exitY=0.5;exitDx=0;exitDy=0;entryX=0;entryY=0.5;entryDx=0;entryDy=0;fontSize=25;startSize=8;endSize=8;strokeWidth=0.5;" edge="1" parent="1" source="dYpTiOb7dCnP9YXtlggP-200" target="dYpTiOb7dCnP9YXtlggP-209">
          <mxGeometry relative="1" as="geometry" />
        </mxCell>
        <mxCell id="dYpTiOb7dCnP9YXtlggP-121" style="edgeStyle=none;curved=1;rounded=0;orthogonalLoop=1;jettySize=auto;html=1;exitX=1;exitY=0.5;exitDx=0;exitDy=0;entryX=0;entryY=0.5;entryDx=0;entryDy=0;fontSize=25;startSize=8;endSize=8;strokeWidth=0.5;" edge="1" parent="1" source="dYpTiOb7dCnP9YXtlggP-200" target="dYpTiOb7dCnP9YXtlggP-217">
          <mxGeometry relative="1" as="geometry" />
        </mxCell>
        <mxCell id="dYpTiOb7dCnP9YXtlggP-122" style="edgeStyle=none;curved=1;rounded=0;orthogonalLoop=1;jettySize=auto;html=1;exitX=1;exitY=0.5;exitDx=0;exitDy=0;entryX=0;entryY=0.5;entryDx=0;entryDy=0;fontSize=25;startSize=8;endSize=8;strokeWidth=0.5;" edge="1" parent="1" source="dYpTiOb7dCnP9YXtlggP-200" target="dYpTiOb7dCnP9YXtlggP-229">
          <mxGeometry relative="1" as="geometry" />
        </mxCell>
        <mxCell id="dYpTiOb7dCnP9YXtlggP-123" style="edgeStyle=none;curved=1;rounded=0;orthogonalLoop=1;jettySize=auto;html=1;exitX=1;exitY=0.5;exitDx=0;exitDy=0;fontSize=26;startSize=8;endSize=8;strokeWidth=0.5;sourcePerimeterSpacing=1;" edge="1" parent="1" source="dYpTiOb7dCnP9YXtlggP-124" target="dYpTiOb7dCnP9YXtlggP-124">
          <mxGeometry relative="1" as="geometry" />
        </mxCell>
        <mxCell id="dYpTiOb7dCnP9YXtlggP-124" value="" style="rounded=1;whiteSpace=wrap;html=1;rotation=90;strokeWidth=1;arcSize=45;fillColor=#dae8fc;strokeColor=#6c8ebf;" vertex="1" parent="1">
          <mxGeometry x="-33" y="931.25" width="406.5" height="129" as="geometry" />
        </mxCell>
        <mxCell id="dYpTiOb7dCnP9YXtlggP-125" value="x&lt;sub&gt;1&lt;/sub&gt;" style="ellipse;whiteSpace=wrap;html=1;aspect=fixed;fontSize=25;fontFamily=Helvetica;" vertex="1" parent="1">
          <mxGeometry x="128.75" y="828" width="80" height="80" as="geometry" />
        </mxCell>
        <mxCell id="dYpTiOb7dCnP9YXtlggP-126" style="edgeStyle=none;curved=1;rounded=0;orthogonalLoop=1;jettySize=auto;html=1;exitX=1;exitY=0.5;exitDx=0;exitDy=0;entryX=0;entryY=0.5;entryDx=0;entryDy=0;fontSize=12;startSize=8;endSize=8;strokeWidth=0.5;endArrow=classic;endFill=1;sourcePerimeterSpacing=1;" edge="1" parent="1" source="dYpTiOb7dCnP9YXtlggP-49" target="dYpTiOb7dCnP9YXtlggP-58">
          <mxGeometry relative="1" as="geometry" />
        </mxCell>
        <mxCell id="dYpTiOb7dCnP9YXtlggP-127" style="edgeStyle=none;curved=1;rounded=0;orthogonalLoop=1;jettySize=auto;html=1;exitX=1;exitY=0.5;exitDx=0;exitDy=0;entryX=0;entryY=0.5;entryDx=0;entryDy=0;fontSize=12;startSize=8;endSize=8;strokeWidth=0.5;endArrow=classic;endFill=1;sourcePerimeterSpacing=1;" edge="1" parent="1" source="dYpTiOb7dCnP9YXtlggP-50" target="dYpTiOb7dCnP9YXtlggP-59">
          <mxGeometry relative="1" as="geometry" />
        </mxCell>
        <mxCell id="dYpTiOb7dCnP9YXtlggP-128" style="edgeStyle=none;curved=1;rounded=0;orthogonalLoop=1;jettySize=auto;html=1;exitX=1;exitY=0.5;exitDx=0;exitDy=0;entryX=0;entryY=0.5;entryDx=0;entryDy=0;fontSize=12;startSize=8;endSize=8;strokeWidth=0.5;endArrow=classic;endFill=1;sourcePerimeterSpacing=1;" edge="1" parent="1" source="dYpTiOb7dCnP9YXtlggP-50" target="dYpTiOb7dCnP9YXtlggP-12">
          <mxGeometry relative="1" as="geometry" />
        </mxCell>
        <mxCell id="dYpTiOb7dCnP9YXtlggP-129" value="h&lt;sub style=&quot;border-color: var(--border-color);&quot;&gt;34&lt;/sub&gt;" style="ellipse;whiteSpace=wrap;html=1;aspect=fixed;fontSize=25;" vertex="1" parent="1">
          <mxGeometry x="2535.5" y="757" width="80" height="80" as="geometry" />
        </mxCell>
        <mxCell id="dYpTiOb7dCnP9YXtlggP-130" style="edgeStyle=none;curved=1;rounded=0;orthogonalLoop=1;jettySize=auto;html=1;exitX=1;exitY=0.5;exitDx=0;exitDy=0;entryX=0;entryY=0.5;entryDx=0;entryDy=0;fontSize=12;startSize=8;endSize=8;strokeWidth=0.5;" edge="1" parent="1" source="dYpTiOb7dCnP9YXtlggP-131" target="dYpTiOb7dCnP9YXtlggP-135">
          <mxGeometry relative="1" as="geometry" />
        </mxCell>
        <mxCell id="dYpTiOb7dCnP9YXtlggP-131" value="h&lt;sub style=&quot;border-color: var(--border-color);&quot;&gt;35&lt;/sub&gt;" style="ellipse;whiteSpace=wrap;html=1;aspect=fixed;fontSize=25;" vertex="1" parent="1">
          <mxGeometry x="2535.5" y="885" width="80" height="80" as="geometry" />
        </mxCell>
        <mxCell id="dYpTiOb7dCnP9YXtlggP-132" style="edgeStyle=none;rounded=0;orthogonalLoop=1;jettySize=auto;html=1;exitX=1;exitY=0.5;exitDx=0;exitDy=0;entryX=0;entryY=0.5;entryDx=0;entryDy=0;strokeColor=default;strokeWidth=0.5;align=center;verticalAlign=middle;fontFamily=Helvetica;fontSize=25;fontColor=default;labelBackgroundColor=default;startSize=8;endArrow=classic;endSize=8;" edge="1" parent="1" source="dYpTiOb7dCnP9YXtlggP-146">
          <mxGeometry relative="1" as="geometry" />
        </mxCell>
        <mxCell id="dYpTiOb7dCnP9YXtlggP-133" style="edgeStyle=none;curved=1;rounded=0;orthogonalLoop=1;jettySize=auto;html=1;exitX=1;exitY=0.5;exitDx=0;exitDy=0;entryX=0;entryY=0.5;entryDx=0;entryDy=0;fontSize=12;startSize=8;endSize=8;strokeWidth=0.5;" edge="1" parent="1" source="dYpTiOb7dCnP9YXtlggP-134" target="dYpTiOb7dCnP9YXtlggP-135">
          <mxGeometry relative="1" as="geometry" />
        </mxCell>
        <mxCell id="dYpTiOb7dCnP9YXtlggP-134" value="h&lt;sub style=&quot;border-color: var(--border-color);&quot;&gt;36&lt;/sub&gt;" style="ellipse;whiteSpace=wrap;html=1;aspect=fixed;fontSize=25;" vertex="1" parent="1">
          <mxGeometry x="2535.5" y="1011.5" width="80" height="80" as="geometry" />
        </mxCell>
        <mxCell id="dYpTiOb7dCnP9YXtlggP-135" value="y&lt;sub style=&quot;border-color: var(--border-color);&quot;&gt;2&lt;/sub&gt;" style="ellipse;whiteSpace=wrap;html=1;aspect=fixed;fontSize=25;" vertex="1" parent="1">
          <mxGeometry x="2759.3" y="883.0500000000002" width="80" height="80" as="geometry" />
        </mxCell>
        <mxCell id="dYpTiOb7dCnP9YXtlggP-136" value="h&lt;sub style=&quot;border-color: var(--border-color);&quot;&gt;31&lt;/sub&gt;" style="ellipse;whiteSpace=wrap;html=1;aspect=fixed;fontSize=25;" vertex="1" parent="1">
          <mxGeometry x="2535.5" y="307" width="80" height="80" as="geometry" />
        </mxCell>
        <mxCell id="dYpTiOb7dCnP9YXtlggP-137" style="edgeStyle=none;curved=1;rounded=0;orthogonalLoop=1;jettySize=auto;html=1;exitX=1;exitY=0.5;exitDx=0;exitDy=0;entryX=0;entryY=0.5;entryDx=0;entryDy=0;fontSize=12;startSize=8;endSize=8;strokeWidth=0.5;endArrow=classic;endFill=1;sourcePerimeterSpacing=1;" edge="1" parent="1" source="dYpTiOb7dCnP9YXtlggP-148" target="dYpTiOb7dCnP9YXtlggP-238">
          <mxGeometry relative="1" as="geometry" />
        </mxCell>
        <mxCell id="dYpTiOb7dCnP9YXtlggP-138" value="Output Layer" style="text;strokeColor=none;fillColor=none;html=1;align=center;verticalAlign=middle;whiteSpace=wrap;rounded=0;fontSize=26;fontColor=#c9646e;" vertex="1" parent="1">
          <mxGeometry x="2717.6499999999996" y="1007.1300000000001" width="167.75" height="30" as="geometry" />
        </mxCell>
        <mxCell id="dYpTiOb7dCnP9YXtlggP-139" style="edgeStyle=none;curved=1;rounded=0;orthogonalLoop=1;jettySize=auto;html=1;exitX=1;exitY=0.5;exitDx=0;exitDy=0;entryX=0;entryY=0.5;entryDx=0;entryDy=0;fontSize=25;startSize=8;endSize=8;strokeWidth=0.5;" edge="1" parent="1" source="dYpTiOb7dCnP9YXtlggP-168" target="dYpTiOb7dCnP9YXtlggP-171">
          <mxGeometry relative="1" as="geometry" />
        </mxCell>
        <mxCell id="dYpTiOb7dCnP9YXtlggP-140" style="edgeStyle=none;curved=1;rounded=0;orthogonalLoop=1;jettySize=auto;html=1;exitX=1;exitY=0.5;exitDx=0;exitDy=0;fontSize=12;startSize=8;endSize=8;strokeWidth=0.5;" edge="1" parent="1" source="dYpTiOb7dCnP9YXtlggP-144">
          <mxGeometry relative="1" as="geometry">
            <mxPoint x="2777.3332926432295" y="475.6300000000001" as="targetPoint" />
          </mxGeometry>
        </mxCell>
        <mxCell id="dYpTiOb7dCnP9YXtlggP-141" value="h&lt;span style=&quot;border-color: var(--border-color);&quot;&gt;&lt;sub&gt;11&lt;/sub&gt;&lt;/span&gt;" style="ellipse;whiteSpace=wrap;html=1;aspect=fixed;fontSize=25;" vertex="1" parent="1">
          <mxGeometry x="336.75" y="777" width="80" height="80" as="geometry" />
        </mxCell>
        <mxCell id="dYpTiOb7dCnP9YXtlggP-142" style="edgeStyle=none;curved=1;rounded=0;orthogonalLoop=1;jettySize=auto;html=1;exitX=1;exitY=0.5;exitDx=0;exitDy=0;entryX=0;entryY=0.5;entryDx=0;entryDy=0;fontSize=12;startSize=8;endSize=8;strokeWidth=0.5;" edge="1" parent="1" source="dYpTiOb7dCnP9YXtlggP-87" target="dYpTiOb7dCnP9YXtlggP-131">
          <mxGeometry relative="1" as="geometry" />
        </mxCell>
        <mxCell id="dYpTiOb7dCnP9YXtlggP-143" value="h&lt;span style=&quot;font-size: 20.8333px;&quot;&gt;14&lt;/span&gt;" style="ellipse;whiteSpace=wrap;html=1;aspect=fixed;fontSize=25;" vertex="1" parent="1">
          <mxGeometry x="338.75" y="513.5" width="80" height="80" as="geometry" />
        </mxCell>
        <mxCell id="dYpTiOb7dCnP9YXtlggP-144" value="h&lt;sub style=&quot;border-color: var(--border-color);&quot;&gt;32&lt;/sub&gt;" style="ellipse;whiteSpace=wrap;html=1;aspect=fixed;fontSize=25;" vertex="1" parent="1">
          <mxGeometry x="2535.5" y="435" width="80" height="80" as="geometry" />
        </mxCell>
        <mxCell id="dYpTiOb7dCnP9YXtlggP-145" style="edgeStyle=none;curved=1;rounded=0;orthogonalLoop=1;jettySize=auto;html=1;exitX=1;exitY=0.5;exitDx=0;exitDy=0;entryX=0;entryY=0.5;entryDx=0;entryDy=0;fontSize=12;startSize=8;endSize=8;strokeWidth=0.5;" edge="1" parent="1" source="dYpTiOb7dCnP9YXtlggP-86" target="dYpTiOb7dCnP9YXtlggP-134">
          <mxGeometry relative="1" as="geometry" />
        </mxCell>
        <mxCell id="dYpTiOb7dCnP9YXtlggP-146" value="h&lt;sub style=&quot;border-color: var(--border-color);&quot;&gt;22&lt;/sub&gt;" style="ellipse;whiteSpace=wrap;html=1;aspect=fixed;fontSize=25;" vertex="1" parent="1">
          <mxGeometry x="2321.25" y="622" width="80" height="80" as="geometry" />
        </mxCell>
        <mxCell id="dYpTiOb7dCnP9YXtlggP-147" value="h&lt;sub style=&quot;border-color: var(--border-color);&quot;&gt;33&lt;/sub&gt;" style="ellipse;whiteSpace=wrap;html=1;aspect=fixed;fontSize=25;" vertex="1" parent="1">
          <mxGeometry x="2535.5" y="561.5" width="80" height="80" as="geometry" />
        </mxCell>
        <mxCell id="dYpTiOb7dCnP9YXtlggP-148" value="x&lt;sub style=&quot;border-color: var(--border-color);&quot;&gt;2&lt;/sub&gt;" style="ellipse;whiteSpace=wrap;html=1;aspect=fixed;fontSize=25;" vertex="1" parent="1">
          <mxGeometry x="1038.75" y="693.6300000000001" width="80" height="80" as="geometry" />
        </mxCell>
        <mxCell id="dYpTiOb7dCnP9YXtlggP-149" value="h&lt;sub style=&quot;border-color: var(--border-color);&quot;&gt;21&lt;/sub&gt;" style="ellipse;whiteSpace=wrap;html=1;aspect=fixed;fontSize=25;" vertex="1" parent="1">
          <mxGeometry x="539.75" y="777" width="80" height="80" as="geometry" />
        </mxCell>
        <mxCell id="dYpTiOb7dCnP9YXtlggP-150" style="edgeStyle=none;curved=1;rounded=0;orthogonalLoop=1;jettySize=auto;html=1;exitX=1;exitY=0.5;exitDx=0;exitDy=0;entryX=0;entryY=0.5;entryDx=0;entryDy=0;fontSize=25;startSize=8;endSize=8;strokeWidth=0.5;" edge="1" parent="1" source="dYpTiOb7dCnP9YXtlggP-217" target="dYpTiOb7dCnP9YXtlggP-251">
          <mxGeometry relative="1" as="geometry" />
        </mxCell>
        <mxCell id="dYpTiOb7dCnP9YXtlggP-151" style="edgeStyle=none;curved=1;rounded=0;orthogonalLoop=1;jettySize=auto;html=1;exitX=1;exitY=0.5;exitDx=0;exitDy=0;entryX=0;entryY=0.5;entryDx=0;entryDy=0;fontSize=12;startSize=8;endSize=8;strokeWidth=0.5;" edge="1" parent="1" source="dYpTiOb7dCnP9YXtlggP-86" target="dYpTiOb7dCnP9YXtlggP-136">
          <mxGeometry relative="1" as="geometry" />
        </mxCell>
        <mxCell id="dYpTiOb7dCnP9YXtlggP-152" style="edgeStyle=none;curved=1;rounded=0;orthogonalLoop=1;jettySize=auto;html=1;exitX=1;exitY=0.5;exitDx=0;exitDy=0;entryX=0;entryY=0.5;entryDx=0;entryDy=0;fontSize=25;startSize=8;endSize=8;strokeWidth=0.5;" edge="1" parent="1" source="dYpTiOb7dCnP9YXtlggP-209" target="dYpTiOb7dCnP9YXtlggP-251">
          <mxGeometry relative="1" as="geometry" />
        </mxCell>
        <mxCell id="dYpTiOb7dCnP9YXtlggP-153" style="edgeStyle=none;curved=1;rounded=0;orthogonalLoop=1;jettySize=auto;html=1;exitX=1;exitY=0.5;exitDx=0;exitDy=0;entryX=0;entryY=0.5;entryDx=0;entryDy=0;fontSize=12;startSize=8;endSize=8;strokeWidth=0.5;endArrow=classic;endFill=1;sourcePerimeterSpacing=1;" edge="1" parent="1" source="dYpTiOb7dCnP9YXtlggP-157" target="dYpTiOb7dCnP9YXtlggP-199">
          <mxGeometry relative="1" as="geometry" />
        </mxCell>
        <mxCell id="dYpTiOb7dCnP9YXtlggP-154" style="edgeStyle=none;curved=1;rounded=0;orthogonalLoop=1;jettySize=auto;html=1;exitX=1;exitY=0.5;exitDx=0;exitDy=0;entryX=0;entryY=0.5;entryDx=0;entryDy=0;fontSize=12;startSize=8;endSize=8;strokeWidth=0.5;" edge="1" parent="1" source="dYpTiOb7dCnP9YXtlggP-146" target="dYpTiOb7dCnP9YXtlggP-131">
          <mxGeometry relative="1" as="geometry" />
        </mxCell>
        <mxCell id="dYpTiOb7dCnP9YXtlggP-155" value="" style="rounded=1;whiteSpace=wrap;html=1;rotation=90;strokeWidth=1;arcSize=45;fillColor=#d5e8d4;strokeColor=#82b366;fontSize=25;" vertex="1" parent="1">
          <mxGeometry x="1014.75" y="671.1300000000001" width="544" height="129" as="geometry" />
        </mxCell>
        <mxCell id="dYpTiOb7dCnP9YXtlggP-156" value="&lt;font color=&quot;#a680b8&quot;&gt;Task&lt;br&gt;Layer&lt;/font&gt;" style="text;strokeColor=none;fillColor=none;html=1;align=center;verticalAlign=middle;whiteSpace=wrap;rounded=0;fontSize=26;fontColor=#c2d4a0;" vertex="1" parent="1">
          <mxGeometry x="2501" y="1165.63" width="149" height="30" as="geometry" />
        </mxCell>
        <mxCell id="dYpTiOb7dCnP9YXtlggP-157" value="x&lt;sub style=&quot;border-color: var(--border-color);&quot;&gt;3&lt;/sub&gt;" style="ellipse;whiteSpace=wrap;html=1;aspect=fixed;fontSize=25;" vertex="1" parent="1">
          <mxGeometry x="1038.75" y="818.6300000000001" width="80" height="80" as="geometry" />
        </mxCell>
        <mxCell id="dYpTiOb7dCnP9YXtlggP-158" style="edgeStyle=none;curved=1;rounded=0;orthogonalLoop=1;jettySize=auto;html=1;exitX=1;exitY=0.5;exitDx=0;exitDy=0;entryX=0;entryY=0.5;entryDx=0;entryDy=0;fontSize=12;startSize=8;endSize=8;strokeWidth=0.5;endArrow=classic;endFill=1;sourcePerimeterSpacing=1;" edge="1" parent="1" source="dYpTiOb7dCnP9YXtlggP-125" target="dYpTiOb7dCnP9YXtlggP-190">
          <mxGeometry relative="1" as="geometry" />
        </mxCell>
        <mxCell id="dYpTiOb7dCnP9YXtlggP-159" style="edgeStyle=none;curved=1;rounded=0;orthogonalLoop=1;jettySize=auto;html=1;exitX=1;exitY=0.5;exitDx=0;exitDy=0;entryX=0;entryY=0.5;entryDx=0;entryDy=0;fontSize=12;startSize=8;endSize=8;strokeWidth=0.5;" edge="1" parent="1" source="dYpTiOb7dCnP9YXtlggP-86" target="dYpTiOb7dCnP9YXtlggP-144">
          <mxGeometry relative="1" as="geometry" />
        </mxCell>
        <mxCell id="dYpTiOb7dCnP9YXtlggP-160" style="edgeStyle=none;curved=1;rounded=0;orthogonalLoop=1;jettySize=auto;html=1;exitX=1;exitY=0.5;exitDx=0;exitDy=0;entryX=0;entryY=0.5;entryDx=0;entryDy=0;fontSize=25;startSize=8;endSize=8;strokeWidth=0.5;" edge="1" parent="1" source="dYpTiOb7dCnP9YXtlggP-199" target="dYpTiOb7dCnP9YXtlggP-15">
          <mxGeometry relative="1" as="geometry" />
        </mxCell>
        <mxCell id="dYpTiOb7dCnP9YXtlggP-161" value="x&lt;sub style=&quot;border-color: var(--border-color);&quot;&gt;2&lt;/sub&gt;" style="ellipse;whiteSpace=wrap;html=1;aspect=fixed;fontSize=25;" vertex="1" parent="1">
          <mxGeometry x="128.75" y="956" width="80" height="80" as="geometry" />
        </mxCell>
        <mxCell id="dYpTiOb7dCnP9YXtlggP-162" style="edgeStyle=none;curved=1;rounded=0;orthogonalLoop=1;jettySize=auto;html=1;exitX=1;exitY=0.5;exitDx=0;exitDy=0;entryX=0;entryY=0.5;entryDx=0;entryDy=0;fontSize=25;startSize=8;endSize=8;strokeWidth=0.5;" edge="1" parent="1" source="dYpTiOb7dCnP9YXtlggP-107" target="dYpTiOb7dCnP9YXtlggP-171">
          <mxGeometry relative="1" as="geometry" />
        </mxCell>
        <mxCell id="dYpTiOb7dCnP9YXtlggP-163" style="edgeStyle=none;curved=1;rounded=0;orthogonalLoop=1;jettySize=auto;html=1;exitX=1;exitY=0.5;exitDx=0;exitDy=0;entryX=0;entryY=0.5;entryDx=0;entryDy=0;fontSize=12;startSize=8;endSize=8;strokeWidth=0.5;" edge="1" parent="1" source="dYpTiOb7dCnP9YXtlggP-87" target="dYpTiOb7dCnP9YXtlggP-129">
          <mxGeometry relative="1" as="geometry" />
        </mxCell>
        <mxCell id="dYpTiOb7dCnP9YXtlggP-164" style="edgeStyle=none;curved=1;rounded=0;orthogonalLoop=1;jettySize=auto;html=1;exitX=1;exitY=0.5;exitDx=0;exitDy=0;entryX=0;entryY=0.5;entryDx=0;entryDy=0;fontSize=12;startSize=8;endSize=8;strokeWidth=0.5;endArrow=classic;endFill=1;sourcePerimeterSpacing=1;" edge="1" parent="1" source="dYpTiOb7dCnP9YXtlggP-157" target="dYpTiOb7dCnP9YXtlggP-207">
          <mxGeometry relative="1" as="geometry" />
        </mxCell>
        <mxCell id="dYpTiOb7dCnP9YXtlggP-165" style="edgeStyle=none;curved=1;rounded=0;orthogonalLoop=1;jettySize=auto;html=1;exitX=1;exitY=0.5;exitDx=0;exitDy=0;entryX=0;entryY=0.5;entryDx=0;entryDy=0;fontSize=12;startSize=8;endSize=8;strokeWidth=0.5;" edge="1" parent="1" source="dYpTiOb7dCnP9YXtlggP-146" target="dYpTiOb7dCnP9YXtlggP-129">
          <mxGeometry relative="1" as="geometry" />
        </mxCell>
        <mxCell id="dYpTiOb7dCnP9YXtlggP-166" style="edgeStyle=none;curved=1;rounded=0;orthogonalLoop=1;jettySize=auto;html=1;exitX=1;exitY=0.5;exitDx=0;exitDy=0;entryX=0;entryY=0.5;entryDx=0;entryDy=0;fontSize=12;startSize=8;endSize=8;strokeWidth=0.5;endArrow=classic;endFill=1;sourcePerimeterSpacing=1;" edge="1" parent="1" source="dYpTiOb7dCnP9YXtlggP-161" target="dYpTiOb7dCnP9YXtlggP-200">
          <mxGeometry relative="1" as="geometry" />
        </mxCell>
        <mxCell id="dYpTiOb7dCnP9YXtlggP-167" style="edgeStyle=none;curved=1;rounded=0;orthogonalLoop=1;jettySize=auto;html=1;exitX=1;exitY=0.5;exitDx=0;exitDy=0;entryX=0;entryY=0.5;entryDx=0;entryDy=0;fontSize=25;startSize=8;endSize=8;strokeWidth=0.5;" edge="1" parent="1" source="dYpTiOb7dCnP9YXtlggP-207" target="dYpTiOb7dCnP9YXtlggP-15">
          <mxGeometry relative="1" as="geometry" />
        </mxCell>
        <mxCell id="dYpTiOb7dCnP9YXtlggP-168" value="h&lt;sub style=&quot;border-color: var(--border-color);&quot;&gt;22&lt;/sub&gt;" style="ellipse;whiteSpace=wrap;html=1;aspect=fixed;fontSize=25;" vertex="1" parent="1">
          <mxGeometry x="541.75" y="271" width="80" height="80" as="geometry" />
        </mxCell>
        <mxCell id="dYpTiOb7dCnP9YXtlggP-169" style="edgeStyle=none;curved=1;rounded=0;orthogonalLoop=1;jettySize=auto;html=1;exitX=1;exitY=0.5;exitDx=0;exitDy=0;fontSize=25;startSize=8;endSize=8;strokeWidth=0.5;" edge="1" parent="1" source="dYpTiOb7dCnP9YXtlggP-199" target="dYpTiOb7dCnP9YXtlggP-13">
          <mxGeometry relative="1" as="geometry" />
        </mxCell>
        <mxCell id="dYpTiOb7dCnP9YXtlggP-170" value="h&lt;sub style=&quot;border-color: var(--border-color);&quot;&gt;12&lt;/sub&gt;" style="ellipse;whiteSpace=wrap;html=1;aspect=fixed;fontSize=25;" vertex="1" parent="1">
          <mxGeometry x="336.75" y="905" width="80" height="80" as="geometry" />
        </mxCell>
        <mxCell id="dYpTiOb7dCnP9YXtlggP-171" value="y&lt;sub style=&quot;border-color: var(--border-color);&quot;&gt;1&lt;/sub&gt;" style="ellipse;whiteSpace=wrap;html=1;aspect=fixed;fontSize=25;" vertex="1" parent="1">
          <mxGeometry x="776.6199999999999" y="339" width="80" height="80" as="geometry" />
        </mxCell>
        <mxCell id="dYpTiOb7dCnP9YXtlggP-172" style="edgeStyle=none;curved=1;rounded=0;orthogonalLoop=1;jettySize=auto;html=1;exitX=1;exitY=0.5;exitDx=0;exitDy=0;entryX=0;entryY=0.5;entryDx=0;entryDy=0;fontSize=12;startSize=8;endSize=8;strokeWidth=0.5;" edge="1" parent="1" source="dYpTiOb7dCnP9YXtlggP-87" target="dYpTiOb7dCnP9YXtlggP-147">
          <mxGeometry relative="1" as="geometry" />
        </mxCell>
        <mxCell id="dYpTiOb7dCnP9YXtlggP-173" style="edgeStyle=none;curved=1;rounded=0;orthogonalLoop=1;jettySize=auto;html=1;exitX=1;exitY=0.5;exitDx=0;exitDy=0;entryX=0;entryY=0.5;entryDx=0;entryDy=0;fontSize=25;startSize=8;endSize=8;strokeWidth=0.5;" edge="1" parent="1" source="dYpTiOb7dCnP9YXtlggP-170" target="dYpTiOb7dCnP9YXtlggP-229">
          <mxGeometry relative="1" as="geometry" />
        </mxCell>
        <mxCell id="dYpTiOb7dCnP9YXtlggP-174" style="edgeStyle=none;curved=1;rounded=0;orthogonalLoop=1;jettySize=auto;html=1;exitX=1;exitY=0.5;exitDx=0;exitDy=0;entryX=0;entryY=0.5;entryDx=0;entryDy=0;fontSize=12;startSize=8;endSize=8;strokeWidth=0.5;" edge="1" parent="1" source="dYpTiOb7dCnP9YXtlggP-86" target="dYpTiOb7dCnP9YXtlggP-129">
          <mxGeometry relative="1" as="geometry" />
        </mxCell>
        <mxCell id="dYpTiOb7dCnP9YXtlggP-175" value="" style="ellipse;whiteSpace=wrap;html=1;aspect=fixed;" vertex="1" parent="1">
          <mxGeometry x="5272" y="2698" width="80" height="80" as="geometry" />
        </mxCell>
        <mxCell id="dYpTiOb7dCnP9YXtlggP-176" style="edgeStyle=none;curved=1;rounded=0;orthogonalLoop=1;jettySize=auto;html=1;exitX=1;exitY=0.5;exitDx=0;exitDy=0;entryX=0;entryY=0.5;entryDx=0;entryDy=0;fontSize=25;startSize=8;endSize=8;strokeWidth=0.5;" edge="1" parent="1" source="dYpTiOb7dCnP9YXtlggP-141" target="dYpTiOb7dCnP9YXtlggP-209">
          <mxGeometry relative="1" as="geometry" />
        </mxCell>
        <mxCell id="dYpTiOb7dCnP9YXtlggP-177" style="edgeStyle=none;curved=1;rounded=0;orthogonalLoop=1;jettySize=auto;html=1;exitX=1;exitY=0.5;exitDx=0;exitDy=0;entryX=0;entryY=0.5;entryDx=0;entryDy=0;fontSize=25;startSize=8;endSize=8;strokeWidth=0.5;" edge="1" parent="1" source="dYpTiOb7dCnP9YXtlggP-207" target="dYpTiOb7dCnP9YXtlggP-13">
          <mxGeometry relative="1" as="geometry" />
        </mxCell>
        <mxCell id="dYpTiOb7dCnP9YXtlggP-178" value="h&lt;sub style=&quot;border-color: var(--border-color);&quot;&gt;23&lt;/sub&gt;" style="ellipse;whiteSpace=wrap;html=1;aspect=fixed;fontSize=25;" vertex="1" parent="1">
          <mxGeometry x="541.75" y="397.5" width="80" height="80" as="geometry" />
        </mxCell>
        <mxCell id="dYpTiOb7dCnP9YXtlggP-179" style="edgeStyle=none;curved=1;rounded=0;orthogonalLoop=1;jettySize=auto;html=1;exitX=1;exitY=0.5;exitDx=0;exitDy=0;entryX=0;entryY=0.5;entryDx=0;entryDy=0;fontSize=25;startSize=8;endSize=8;strokeWidth=0.5;" edge="1" parent="1" source="dYpTiOb7dCnP9YXtlggP-199" target="dYpTiOb7dCnP9YXtlggP-250">
          <mxGeometry relative="1" as="geometry" />
        </mxCell>
        <mxCell id="dYpTiOb7dCnP9YXtlggP-180" value="x&lt;sub style=&quot;border-color: var(--border-color);&quot;&gt;3&lt;/sub&gt;" style="ellipse;whiteSpace=wrap;html=1;aspect=fixed;fontSize=25;" vertex="1" parent="1">
          <mxGeometry x="128.75" y="1081" width="80" height="80" as="geometry" />
        </mxCell>
        <mxCell id="dYpTiOb7dCnP9YXtlggP-181" style="edgeStyle=none;curved=1;rounded=0;orthogonalLoop=1;jettySize=auto;html=1;exitX=1;exitY=0.5;exitDx=0;exitDy=0;entryX=0;entryY=0.5;entryDx=0;entryDy=0;fontSize=12;startSize=8;endSize=8;strokeWidth=0.5;endArrow=classic;endFill=1;sourcePerimeterSpacing=1;" edge="1" parent="1" source="dYpTiOb7dCnP9YXtlggP-125" target="dYpTiOb7dCnP9YXtlggP-200">
          <mxGeometry relative="1" as="geometry" />
        </mxCell>
        <mxCell id="dYpTiOb7dCnP9YXtlggP-182" style="edgeStyle=none;curved=1;rounded=0;orthogonalLoop=1;jettySize=auto;html=1;exitX=1;exitY=0.5;exitDx=0;exitDy=0;entryX=0;entryY=0.5;entryDx=0;entryDy=0;fontSize=12;startSize=8;endSize=8;strokeWidth=0.5;" edge="1" parent="1" source="dYpTiOb7dCnP9YXtlggP-87" target="dYpTiOb7dCnP9YXtlggP-144">
          <mxGeometry relative="1" as="geometry" />
        </mxCell>
        <mxCell id="dYpTiOb7dCnP9YXtlggP-183" style="edgeStyle=none;curved=1;rounded=0;orthogonalLoop=1;jettySize=auto;html=1;exitX=1;exitY=0.5;exitDx=0;exitDy=0;fontSize=26;startSize=8;endSize=8;strokeWidth=0.5;sourcePerimeterSpacing=1;" edge="1" parent="1" source="dYpTiOb7dCnP9YXtlggP-4" target="dYpTiOb7dCnP9YXtlggP-4">
          <mxGeometry relative="1" as="geometry" />
        </mxCell>
        <mxCell id="dYpTiOb7dCnP9YXtlggP-184" style="edgeStyle=none;curved=1;rounded=0;orthogonalLoop=1;jettySize=auto;html=1;exitX=1;exitY=0.5;exitDx=0;exitDy=0;entryX=0;entryY=0.5;entryDx=0;entryDy=0;fontSize=12;startSize=8;endSize=8;strokeWidth=0.5;" edge="1" parent="1" source="dYpTiOb7dCnP9YXtlggP-86" target="dYpTiOb7dCnP9YXtlggP-131">
          <mxGeometry relative="1" as="geometry" />
        </mxCell>
        <mxCell id="dYpTiOb7dCnP9YXtlggP-185" style="edgeStyle=none;curved=1;rounded=0;orthogonalLoop=1;jettySize=auto;html=1;exitX=1;exitY=0.5;exitDx=0;exitDy=0;entryX=0;entryY=0.5;entryDx=0;entryDy=0;fontSize=12;startSize=8;endSize=8;strokeWidth=0.5;endArrow=classic;endFill=1;sourcePerimeterSpacing=1;" edge="1" parent="1" source="dYpTiOb7dCnP9YXtlggP-223" target="dYpTiOb7dCnP9YXtlggP-253">
          <mxGeometry relative="1" as="geometry" />
        </mxCell>
        <mxCell id="dYpTiOb7dCnP9YXtlggP-186" style="edgeStyle=none;curved=1;rounded=0;orthogonalLoop=1;jettySize=auto;html=1;exitX=1;exitY=0.5;exitDx=0;exitDy=0;entryX=0;entryY=0.5;entryDx=0;entryDy=0;fontSize=25;startSize=8;endSize=8;strokeWidth=0.5;" edge="1" parent="1" source="dYpTiOb7dCnP9YXtlggP-141" target="dYpTiOb7dCnP9YXtlggP-229">
          <mxGeometry relative="1" as="geometry" />
        </mxCell>
        <mxCell id="dYpTiOb7dCnP9YXtlggP-187" style="edgeStyle=none;curved=1;rounded=0;orthogonalLoop=1;jettySize=auto;html=1;exitX=1;exitY=0.5;exitDx=0;exitDy=0;entryX=0;entryY=0.5;entryDx=0;entryDy=0;fontSize=25;startSize=8;endSize=8;strokeWidth=0.5;" edge="1" parent="1" source="dYpTiOb7dCnP9YXtlggP-207" target="dYpTiOb7dCnP9YXtlggP-250">
          <mxGeometry relative="1" as="geometry" />
        </mxCell>
        <mxCell id="dYpTiOb7dCnP9YXtlggP-188" style="edgeStyle=none;curved=1;rounded=0;orthogonalLoop=1;jettySize=auto;html=1;exitX=1;exitY=0.5;exitDx=0;exitDy=0;entryX=0;entryY=0.5;entryDx=0;entryDy=0;fontSize=12;startSize=8;endSize=8;strokeWidth=0.5;endArrow=classic;endFill=1;sourcePerimeterSpacing=1;" edge="1" parent="1" source="dYpTiOb7dCnP9YXtlggP-161" target="dYpTiOb7dCnP9YXtlggP-170">
          <mxGeometry relative="1" as="geometry" />
        </mxCell>
        <mxCell id="dYpTiOb7dCnP9YXtlggP-189" style="edgeStyle=none;curved=1;rounded=0;orthogonalLoop=1;jettySize=auto;html=1;exitX=1;exitY=0.5;exitDx=0;exitDy=0;entryX=0;entryY=0.5;entryDx=0;entryDy=0;fontSize=25;startSize=8;endSize=8;strokeWidth=0.5;" edge="1" parent="1" source="dYpTiOb7dCnP9YXtlggP-199" target="dYpTiOb7dCnP9YXtlggP-256">
          <mxGeometry relative="1" as="geometry" />
        </mxCell>
        <mxCell id="dYpTiOb7dCnP9YXtlggP-190" value="h&lt;sub style=&quot;border-color: var(--border-color);&quot;&gt;13&lt;/sub&gt;" style="ellipse;whiteSpace=wrap;html=1;aspect=fixed;fontSize=25;" vertex="1" parent="1">
          <mxGeometry x="336.75" y="1031.5" width="80" height="80" as="geometry" />
        </mxCell>
        <mxCell id="dYpTiOb7dCnP9YXtlggP-191" style="edgeStyle=none;curved=1;rounded=0;orthogonalLoop=1;jettySize=auto;html=1;exitX=1;exitY=0.5;exitDx=0;exitDy=0;entryX=0;entryY=0.5;entryDx=0;entryDy=0;fontSize=25;startSize=8;endSize=8;strokeWidth=0.5;" edge="1" parent="1" source="dYpTiOb7dCnP9YXtlggP-141" target="dYpTiOb7dCnP9YXtlggP-149">
          <mxGeometry relative="1" as="geometry" />
        </mxCell>
        <mxCell id="dYpTiOb7dCnP9YXtlggP-192" style="edgeStyle=none;curved=1;rounded=0;orthogonalLoop=1;jettySize=auto;html=1;exitX=1;exitY=0.5;exitDx=0;exitDy=0;entryX=0;entryY=0.5;entryDx=0;entryDy=0;fontSize=12;startSize=8;endSize=8;strokeWidth=0.5;" edge="1" parent="1" source="dYpTiOb7dCnP9YXtlggP-87" target="dYpTiOb7dCnP9YXtlggP-136">
          <mxGeometry relative="1" as="geometry" />
        </mxCell>
        <mxCell id="dYpTiOb7dCnP9YXtlggP-193" style="edgeStyle=none;curved=1;rounded=0;orthogonalLoop=1;jettySize=auto;html=1;exitX=1;exitY=0.5;exitDx=0;exitDy=0;entryX=0;entryY=0.5;entryDx=0;entryDy=0;fontSize=12;startSize=8;endSize=8;strokeWidth=0.5;endArrow=classic;endFill=1;sourcePerimeterSpacing=1;" edge="1" parent="1" source="dYpTiOb7dCnP9YXtlggP-125" target="dYpTiOb7dCnP9YXtlggP-170">
          <mxGeometry relative="1" as="geometry" />
        </mxCell>
        <mxCell id="dYpTiOb7dCnP9YXtlggP-194" style="edgeStyle=none;curved=1;rounded=0;orthogonalLoop=1;jettySize=auto;html=1;exitX=1;exitY=0.5;exitDx=0;exitDy=0;entryX=0;entryY=0.5;entryDx=0;entryDy=0;fontSize=12;startSize=8;endSize=8;strokeWidth=0.5;" edge="1" parent="1" source="dYpTiOb7dCnP9YXtlggP-87" target="dYpTiOb7dCnP9YXtlggP-134">
          <mxGeometry relative="1" as="geometry" />
        </mxCell>
        <mxCell id="dYpTiOb7dCnP9YXtlggP-195" style="edgeStyle=none;curved=1;rounded=0;orthogonalLoop=1;jettySize=auto;html=1;exitX=1;exitY=0.5;exitDx=0;exitDy=0;entryX=0;entryY=0.5;entryDx=0;entryDy=0;fontSize=12;startSize=8;endSize=8;strokeWidth=0.5;endArrow=classic;endFill=1;sourcePerimeterSpacing=1;" edge="1" parent="1" source="dYpTiOb7dCnP9YXtlggP-223" target="dYpTiOb7dCnP9YXtlggP-199">
          <mxGeometry relative="1" as="geometry" />
        </mxCell>
        <mxCell id="dYpTiOb7dCnP9YXtlggP-196" style="edgeStyle=none;curved=1;rounded=0;orthogonalLoop=1;jettySize=auto;html=1;exitX=1;exitY=0.5;exitDx=0;exitDy=0;entryX=0;entryY=0.5;entryDx=0;entryDy=0;fontSize=25;startSize=8;endSize=8;strokeWidth=0.5;" edge="1" parent="1" source="dYpTiOb7dCnP9YXtlggP-170" target="dYpTiOb7dCnP9YXtlggP-149">
          <mxGeometry relative="1" as="geometry" />
        </mxCell>
        <mxCell id="dYpTiOb7dCnP9YXtlggP-197" style="edgeStyle=none;curved=1;rounded=0;orthogonalLoop=1;jettySize=auto;html=1;exitX=1;exitY=0.5;exitDx=0;exitDy=0;entryX=0;entryY=0.5;entryDx=0;entryDy=0;fontSize=25;startSize=8;endSize=8;strokeWidth=0.5;" edge="1" parent="1" source="dYpTiOb7dCnP9YXtlggP-207" target="dYpTiOb7dCnP9YXtlggP-256">
          <mxGeometry relative="1" as="geometry" />
        </mxCell>
        <mxCell id="dYpTiOb7dCnP9YXtlggP-198" style="edgeStyle=none;curved=1;rounded=0;orthogonalLoop=1;jettySize=auto;html=1;exitX=1;exitY=0.5;exitDx=0;exitDy=0;entryX=0;entryY=0.5;entryDx=0;entryDy=0;fontSize=12;startSize=8;endSize=8;strokeWidth=0.5;endArrow=classic;endFill=1;sourcePerimeterSpacing=1;" edge="1" parent="1" source="dYpTiOb7dCnP9YXtlggP-180" target="dYpTiOb7dCnP9YXtlggP-170">
          <mxGeometry relative="1" as="geometry" />
        </mxCell>
        <mxCell id="dYpTiOb7dCnP9YXtlggP-199" value="h&lt;sub style=&quot;border-color: var(--border-color);&quot;&gt;12&lt;/sub&gt;" style="ellipse;whiteSpace=wrap;html=1;aspect=fixed;fontSize=25;" vertex="1" parent="1">
          <mxGeometry x="1246.75" y="642.6300000000001" width="80" height="80" as="geometry" />
        </mxCell>
        <mxCell id="dYpTiOb7dCnP9YXtlggP-200" value="h&lt;span style=&quot;font-size: 20.8333px;&quot;&gt;14&lt;/span&gt;" style="ellipse;whiteSpace=wrap;html=1;aspect=fixed;fontSize=25;" vertex="1" parent="1">
          <mxGeometry x="336.75" y="1147.5" width="80" height="80" as="geometry" />
        </mxCell>
        <mxCell id="dYpTiOb7dCnP9YXtlggP-201" style="edgeStyle=none;curved=1;rounded=0;orthogonalLoop=1;jettySize=auto;html=1;exitX=1;exitY=0.5;exitDx=0;exitDy=0;entryX=0;entryY=0.5;entryDx=0;entryDy=0;fontSize=12;startSize=8;endSize=8;strokeWidth=0.5;endArrow=classic;endFill=1;sourcePerimeterSpacing=1;" edge="1" parent="1" source="dYpTiOb7dCnP9YXtlggP-180" target="dYpTiOb7dCnP9YXtlggP-141">
          <mxGeometry relative="1" as="geometry" />
        </mxCell>
        <mxCell id="dYpTiOb7dCnP9YXtlggP-202" style="edgeStyle=none;curved=1;rounded=0;orthogonalLoop=1;jettySize=auto;html=1;exitX=1;exitY=0.5;exitDx=0;exitDy=0;entryX=0;entryY=0.5;entryDx=0;entryDy=0;fontSize=12;startSize=8;endSize=8;strokeWidth=0.5;" edge="1" parent="1" source="dYpTiOb7dCnP9YXtlggP-146" target="dYpTiOb7dCnP9YXtlggP-144">
          <mxGeometry relative="1" as="geometry" />
        </mxCell>
        <mxCell id="dYpTiOb7dCnP9YXtlggP-203" style="edgeStyle=none;curved=1;rounded=0;orthogonalLoop=1;jettySize=auto;html=1;exitX=1;exitY=0.5;exitDx=0;exitDy=0;entryX=0;entryY=0.5;entryDx=0;entryDy=0;fontSize=12;startSize=8;endSize=8;strokeWidth=0.5;endArrow=classic;endFill=1;sourcePerimeterSpacing=1;" edge="1" parent="1" source="dYpTiOb7dCnP9YXtlggP-161" target="dYpTiOb7dCnP9YXtlggP-141">
          <mxGeometry relative="1" as="geometry" />
        </mxCell>
        <mxCell id="dYpTiOb7dCnP9YXtlggP-204" style="edgeStyle=none;curved=1;rounded=0;orthogonalLoop=1;jettySize=auto;html=1;exitX=1;exitY=0.5;exitDx=0;exitDy=0;entryX=0;entryY=0.5;entryDx=0;entryDy=0;fontSize=12;startSize=8;endSize=8;strokeWidth=0.5;" edge="1" parent="1" source="dYpTiOb7dCnP9YXtlggP-86" target="dYpTiOb7dCnP9YXtlggP-147">
          <mxGeometry relative="1" as="geometry" />
        </mxCell>
        <mxCell id="dYpTiOb7dCnP9YXtlggP-205" style="edgeStyle=none;curved=1;rounded=0;orthogonalLoop=1;jettySize=auto;html=1;exitX=1;exitY=0.5;exitDx=0;exitDy=0;entryX=0;entryY=0.5;entryDx=0;entryDy=0;fontSize=12;startSize=8;endSize=8;strokeWidth=0.5;endArrow=classic;endFill=1;sourcePerimeterSpacing=1;" edge="1" parent="1" source="dYpTiOb7dCnP9YXtlggP-223" target="dYpTiOb7dCnP9YXtlggP-207">
          <mxGeometry relative="1" as="geometry" />
        </mxCell>
        <mxCell id="dYpTiOb7dCnP9YXtlggP-206" value="Output Layer" style="text;strokeColor=none;fillColor=none;html=1;align=center;verticalAlign=middle;whiteSpace=wrap;rounded=0;fontSize=26;fontColor=#c9646e;" vertex="1" parent="1">
          <mxGeometry x="732.7399999999998" y="1122" width="167.75" height="30" as="geometry" />
        </mxCell>
        <mxCell id="dYpTiOb7dCnP9YXtlggP-207" value="h&lt;sub style=&quot;border-color: var(--border-color);&quot;&gt;13&lt;/sub&gt;" style="ellipse;whiteSpace=wrap;html=1;aspect=fixed;fontSize=25;" vertex="1" parent="1">
          <mxGeometry x="1246.75" y="769.1300000000001" width="80" height="80" as="geometry" />
        </mxCell>
        <mxCell id="dYpTiOb7dCnP9YXtlggP-208" style="edgeStyle=none;curved=1;rounded=0;orthogonalLoop=1;jettySize=auto;html=1;exitX=1;exitY=0.5;exitDx=0;exitDy=0;entryX=0;entryY=0.5;entryDx=0;entryDy=0;fontSize=12;startSize=8;endSize=8;strokeWidth=0.5;endArrow=classic;endFill=1;sourcePerimeterSpacing=1;" edge="1" parent="1" source="dYpTiOb7dCnP9YXtlggP-157" target="dYpTiOb7dCnP9YXtlggP-253">
          <mxGeometry relative="1" as="geometry" />
        </mxCell>
        <mxCell id="dYpTiOb7dCnP9YXtlggP-209" value="h&lt;sub style=&quot;border-color: var(--border-color);&quot;&gt;22&lt;/sub&gt;" style="ellipse;whiteSpace=wrap;html=1;aspect=fixed;fontSize=25;" vertex="1" parent="1">
          <mxGeometry x="539.75" y="905" width="80" height="80" as="geometry" />
        </mxCell>
        <mxCell id="dYpTiOb7dCnP9YXtlggP-210" style="edgeStyle=none;curved=1;rounded=0;orthogonalLoop=1;jettySize=auto;html=1;exitX=1;exitY=0.5;exitDx=0;exitDy=0;entryX=0;entryY=0.5;entryDx=0;entryDy=0;fontSize=12;startSize=8;endSize=8;strokeWidth=0.5;" edge="1" parent="1" source="dYpTiOb7dCnP9YXtlggP-146" target="dYpTiOb7dCnP9YXtlggP-134">
          <mxGeometry relative="1" as="geometry" />
        </mxCell>
        <mxCell id="dYpTiOb7dCnP9YXtlggP-211" style="edgeStyle=none;curved=1;rounded=0;orthogonalLoop=1;jettySize=auto;html=1;exitX=1;exitY=0.5;exitDx=0;exitDy=0;entryX=0;entryY=0.5;entryDx=0;entryDy=0;fontSize=12;startSize=8;endSize=8;strokeWidth=0.5;endArrow=classic;endFill=1;sourcePerimeterSpacing=1;" edge="1" parent="1" source="dYpTiOb7dCnP9YXtlggP-223" target="dYpTiOb7dCnP9YXtlggP-238">
          <mxGeometry relative="1" as="geometry" />
        </mxCell>
        <mxCell id="dYpTiOb7dCnP9YXtlggP-212" style="edgeStyle=none;curved=1;rounded=0;orthogonalLoop=1;jettySize=auto;html=1;exitX=1;exitY=0.5;exitDx=0;exitDy=0;entryX=0;entryY=0.5;entryDx=0;entryDy=0;fontSize=12;startSize=8;endSize=8;strokeWidth=0.5;endArrow=classic;endFill=1;sourcePerimeterSpacing=1;" edge="1" parent="1" source="dYpTiOb7dCnP9YXtlggP-222" target="dYpTiOb7dCnP9YXtlggP-236">
          <mxGeometry relative="1" as="geometry" />
        </mxCell>
        <mxCell id="dYpTiOb7dCnP9YXtlggP-213" style="edgeStyle=none;curved=1;rounded=0;orthogonalLoop=1;jettySize=auto;html=1;exitX=1;exitY=0.5;exitDx=0;exitDy=0;entryX=0;entryY=0.5;entryDx=0;entryDy=0;fontSize=12;startSize=8;endSize=8;strokeWidth=0.5;endArrow=classic;endFill=1;sourcePerimeterSpacing=1;" edge="1" parent="1" source="dYpTiOb7dCnP9YXtlggP-224" target="dYpTiOb7dCnP9YXtlggP-12">
          <mxGeometry relative="1" as="geometry" />
        </mxCell>
        <mxCell id="dYpTiOb7dCnP9YXtlggP-214" style="edgeStyle=none;curved=1;rounded=0;orthogonalLoop=1;jettySize=auto;html=1;exitX=1;exitY=0.5;exitDx=0;exitDy=0;entryX=0;entryY=0.5;entryDx=0;entryDy=0;fontSize=25;startSize=8;endSize=8;strokeWidth=0.5;" edge="1" parent="1" source="dYpTiOb7dCnP9YXtlggP-238" target="dYpTiOb7dCnP9YXtlggP-15">
          <mxGeometry relative="1" as="geometry" />
        </mxCell>
        <mxCell id="dYpTiOb7dCnP9YXtlggP-215" style="edgeStyle=none;curved=1;rounded=0;orthogonalLoop=1;jettySize=auto;html=1;exitX=1;exitY=0.5;exitDx=0;exitDy=0;entryX=0;entryY=0.5;entryDx=0;entryDy=0;fontSize=12;startSize=8;endSize=8;strokeWidth=0.5;endArrow=classic;endFill=1;sourcePerimeterSpacing=1;" edge="1" parent="1" source="dYpTiOb7dCnP9YXtlggP-222" target="dYpTiOb7dCnP9YXtlggP-58">
          <mxGeometry relative="1" as="geometry" />
        </mxCell>
        <mxCell id="dYpTiOb7dCnP9YXtlggP-216" style="edgeStyle=none;curved=1;rounded=0;orthogonalLoop=1;jettySize=auto;html=1;exitX=1;exitY=0.5;exitDx=0;exitDy=0;entryX=0;entryY=0.5;entryDx=0;entryDy=0;fontSize=12;startSize=8;endSize=8;strokeWidth=0.5;endArrow=classic;endFill=1;sourcePerimeterSpacing=1;" edge="1" parent="1" source="dYpTiOb7dCnP9YXtlggP-224" target="dYpTiOb7dCnP9YXtlggP-59">
          <mxGeometry relative="1" as="geometry" />
        </mxCell>
        <mxCell id="dYpTiOb7dCnP9YXtlggP-217" value="h&lt;sub style=&quot;border-color: var(--border-color);&quot;&gt;23&lt;/sub&gt;" style="ellipse;whiteSpace=wrap;html=1;aspect=fixed;fontSize=25;" vertex="1" parent="1">
          <mxGeometry x="539.75" y="1031.5" width="80" height="80" as="geometry" />
        </mxCell>
        <mxCell id="dYpTiOb7dCnP9YXtlggP-218" style="edgeStyle=none;curved=1;rounded=0;orthogonalLoop=1;jettySize=auto;html=1;exitX=1;exitY=0.5;exitDx=0;exitDy=0;entryX=0;entryY=0.5;entryDx=0;entryDy=0;fontSize=12;startSize=8;endSize=8;strokeWidth=0.5;endArrow=classic;endFill=1;sourcePerimeterSpacing=1;" edge="1" parent="1" source="dYpTiOb7dCnP9YXtlggP-222" target="dYpTiOb7dCnP9YXtlggP-76">
          <mxGeometry relative="1" as="geometry" />
        </mxCell>
        <mxCell id="dYpTiOb7dCnP9YXtlggP-219" style="edgeStyle=none;curved=1;rounded=0;orthogonalLoop=1;jettySize=auto;html=1;exitX=1;exitY=0.5;exitDx=0;exitDy=0;entryX=0;entryY=0.5;entryDx=0;entryDy=0;fontSize=12;startSize=8;endSize=8;strokeWidth=0.5;endArrow=classic;endFill=1;sourcePerimeterSpacing=1;" edge="1" parent="1" source="dYpTiOb7dCnP9YXtlggP-224" target="dYpTiOb7dCnP9YXtlggP-77">
          <mxGeometry relative="1" as="geometry" />
        </mxCell>
        <mxCell id="dYpTiOb7dCnP9YXtlggP-220" style="edgeStyle=none;curved=1;rounded=0;orthogonalLoop=1;jettySize=auto;html=1;exitX=1;exitY=0.5;exitDx=0;exitDy=0;entryX=0;entryY=0.5;entryDx=0;entryDy=0;fontSize=25;startSize=8;endSize=8;strokeWidth=0.5;" edge="1" parent="1" source="dYpTiOb7dCnP9YXtlggP-238" target="dYpTiOb7dCnP9YXtlggP-13">
          <mxGeometry relative="1" as="geometry" />
        </mxCell>
        <mxCell id="dYpTiOb7dCnP9YXtlggP-221" style="edgeStyle=none;curved=1;rounded=0;orthogonalLoop=1;jettySize=auto;html=1;exitX=1;exitY=0.5;exitDx=0;exitDy=0;entryX=0;entryY=0.5;entryDx=0;entryDy=0;fontSize=12;startSize=8;endSize=8;strokeWidth=0.5;endArrow=classic;endFill=1;sourcePerimeterSpacing=1;" edge="1" parent="1" source="dYpTiOb7dCnP9YXtlggP-222" target="dYpTiOb7dCnP9YXtlggP-85">
          <mxGeometry relative="1" as="geometry" />
        </mxCell>
        <mxCell id="dYpTiOb7dCnP9YXtlggP-222" value="x&lt;sub&gt;1&lt;/sub&gt;" style="ellipse;whiteSpace=wrap;html=1;aspect=fixed;fontSize=25;fontFamily=Helvetica;" vertex="1" parent="1">
          <mxGeometry x="1910.25" y="545" width="80" height="80" as="geometry" />
        </mxCell>
        <mxCell id="dYpTiOb7dCnP9YXtlggP-223" value="x&lt;sub&gt;1&lt;/sub&gt;" style="ellipse;whiteSpace=wrap;html=1;aspect=fixed;fontSize=25;fontFamily=Helvetica;" vertex="1" parent="1">
          <mxGeometry x="1038.75" y="565.6300000000001" width="80" height="80" as="geometry" />
        </mxCell>
        <mxCell id="dYpTiOb7dCnP9YXtlggP-224" value="x&lt;sub&gt;1&lt;/sub&gt;" style="ellipse;whiteSpace=wrap;html=1;aspect=fixed;fontSize=25;fontFamily=Helvetica;" vertex="1" parent="1">
          <mxGeometry x="130.75" y="194" width="80" height="80" as="geometry" />
        </mxCell>
        <mxCell id="dYpTiOb7dCnP9YXtlggP-225" style="edgeStyle=none;curved=1;rounded=0;orthogonalLoop=1;jettySize=auto;html=1;exitX=1;exitY=0.5;exitDx=0;exitDy=0;entryX=0;entryY=0.5;entryDx=0;entryDy=0;fontSize=25;startSize=8;endSize=8;strokeWidth=0.5;" edge="1" parent="1" source="dYpTiOb7dCnP9YXtlggP-236" target="dYpTiOb7dCnP9YXtlggP-244">
          <mxGeometry relative="1" as="geometry" />
        </mxCell>
        <mxCell id="dYpTiOb7dCnP9YXtlggP-226" style="edgeStyle=none;curved=1;rounded=0;orthogonalLoop=1;jettySize=auto;html=1;exitX=1;exitY=0.5;exitDx=0;exitDy=0;entryX=0;entryY=0.5;entryDx=0;entryDy=0;fontSize=25;startSize=8;endSize=8;strokeWidth=0.5;" edge="1" parent="1" source="dYpTiOb7dCnP9YXtlggP-238" target="dYpTiOb7dCnP9YXtlggP-250">
          <mxGeometry relative="1" as="geometry" />
        </mxCell>
        <mxCell id="dYpTiOb7dCnP9YXtlggP-227" style="edgeStyle=none;curved=1;rounded=0;orthogonalLoop=1;jettySize=auto;html=1;exitX=1;exitY=0.5;exitDx=0;exitDy=0;entryX=0;entryY=0.5;entryDx=0;entryDy=0;fontSize=25;startSize=8;endSize=8;strokeWidth=0.5;" edge="1" parent="1" source="dYpTiOb7dCnP9YXtlggP-12" target="dYpTiOb7dCnP9YXtlggP-38">
          <mxGeometry relative="1" as="geometry" />
        </mxCell>
        <mxCell id="dYpTiOb7dCnP9YXtlggP-228" style="edgeStyle=none;curved=1;rounded=0;orthogonalLoop=1;jettySize=auto;html=1;exitX=1;exitY=0.5;exitDx=0;exitDy=0;entryX=0;entryY=0.5;entryDx=0;entryDy=0;fontSize=25;startSize=8;endSize=8;strokeWidth=0.5;" edge="1" parent="1" source="dYpTiOb7dCnP9YXtlggP-236" target="dYpTiOb7dCnP9YXtlggP-146">
          <mxGeometry relative="1" as="geometry" />
        </mxCell>
        <mxCell id="dYpTiOb7dCnP9YXtlggP-229" value="h&lt;sub style=&quot;border-color: var(--border-color);&quot;&gt;24&lt;/sub&gt;" style="ellipse;whiteSpace=wrap;html=1;aspect=fixed;fontSize=25;" vertex="1" parent="1">
          <mxGeometry x="539.75" y="1147.5" width="80" height="80" as="geometry" />
        </mxCell>
        <mxCell id="dYpTiOb7dCnP9YXtlggP-230" style="edgeStyle=none;curved=1;rounded=0;orthogonalLoop=1;jettySize=auto;html=1;exitX=1;exitY=0.5;exitDx=0;exitDy=0;entryX=0;entryY=0.5;entryDx=0;entryDy=0;fontSize=25;startSize=8;endSize=8;strokeWidth=0.5;" edge="1" parent="1" source="dYpTiOb7dCnP9YXtlggP-12" target="dYpTiOb7dCnP9YXtlggP-168">
          <mxGeometry relative="1" as="geometry" />
        </mxCell>
        <mxCell id="dYpTiOb7dCnP9YXtlggP-231" style="edgeStyle=none;curved=1;rounded=0;orthogonalLoop=1;jettySize=auto;html=1;exitX=1;exitY=0.5;exitDx=0;exitDy=0;entryX=0;entryY=0.5;entryDx=0;entryDy=0;fontSize=25;startSize=8;endSize=8;strokeWidth=0.5;" edge="1" parent="1" source="dYpTiOb7dCnP9YXtlggP-236" target="dYpTiOb7dCnP9YXtlggP-86">
          <mxGeometry relative="1" as="geometry" />
        </mxCell>
        <mxCell id="dYpTiOb7dCnP9YXtlggP-232" style="edgeStyle=none;curved=1;rounded=0;orthogonalLoop=1;jettySize=auto;html=1;exitX=1;exitY=0.5;exitDx=0;exitDy=0;entryX=0;entryY=0.5;entryDx=0;entryDy=0;fontSize=25;startSize=8;endSize=8;strokeWidth=0.5;" edge="1" parent="1" source="dYpTiOb7dCnP9YXtlggP-238" target="dYpTiOb7dCnP9YXtlggP-256">
          <mxGeometry relative="1" as="geometry" />
        </mxCell>
        <mxCell id="dYpTiOb7dCnP9YXtlggP-233" style="edgeStyle=none;curved=1;rounded=0;orthogonalLoop=1;jettySize=auto;html=1;exitX=1;exitY=0.5;exitDx=0;exitDy=0;entryX=0;entryY=0.5;entryDx=0;entryDy=0;fontSize=25;startSize=8;endSize=8;strokeWidth=0.5;" edge="1" parent="1" source="dYpTiOb7dCnP9YXtlggP-12" target="dYpTiOb7dCnP9YXtlggP-178">
          <mxGeometry relative="1" as="geometry" />
        </mxCell>
        <mxCell id="dYpTiOb7dCnP9YXtlggP-234" style="edgeStyle=none;curved=1;rounded=0;orthogonalLoop=1;jettySize=auto;html=1;exitX=1;exitY=0.5;exitDx=0;exitDy=0;entryX=0;entryY=0.5;entryDx=0;entryDy=0;fontSize=25;startSize=8;endSize=8;strokeWidth=0.5;" edge="1" parent="1" source="dYpTiOb7dCnP9YXtlggP-236" target="dYpTiOb7dCnP9YXtlggP-87">
          <mxGeometry relative="1" as="geometry" />
        </mxCell>
        <mxCell id="dYpTiOb7dCnP9YXtlggP-235" style="edgeStyle=none;curved=1;rounded=0;orthogonalLoop=1;jettySize=auto;html=1;exitX=1;exitY=0.5;exitDx=0;exitDy=0;entryX=0;entryY=0.5;entryDx=0;entryDy=0;fontSize=25;startSize=8;endSize=8;strokeWidth=0.5;" edge="1" parent="1" source="dYpTiOb7dCnP9YXtlggP-253" target="dYpTiOb7dCnP9YXtlggP-15">
          <mxGeometry relative="1" as="geometry" />
        </mxCell>
        <mxCell id="dYpTiOb7dCnP9YXtlggP-236" value="h&lt;span style=&quot;border-color: var(--border-color);&quot;&gt;&lt;sub&gt;11&lt;/sub&gt;&lt;/span&gt;" style="ellipse;whiteSpace=wrap;html=1;aspect=fixed;fontSize=25;" vertex="1" parent="1">
          <mxGeometry x="2118.25" y="494" width="80" height="80" as="geometry" />
        </mxCell>
        <mxCell id="dYpTiOb7dCnP9YXtlggP-237" style="edgeStyle=none;rounded=0;orthogonalLoop=1;jettySize=auto;html=1;exitX=1;exitY=0.5;exitDx=0;exitDy=0;entryX=0;entryY=0.5;entryDx=0;entryDy=0;strokeColor=default;strokeWidth=0.5;align=center;verticalAlign=middle;fontFamily=Helvetica;fontSize=25;fontColor=default;labelBackgroundColor=default;startSize=8;endArrow=classic;endSize=8;" edge="1" parent="1" source="dYpTiOb7dCnP9YXtlggP-244">
          <mxGeometry relative="1" as="geometry" />
        </mxCell>
        <mxCell id="dYpTiOb7dCnP9YXtlggP-238" value="h&lt;span style=&quot;font-size: 20.8333px;&quot;&gt;14&lt;/span&gt;" style="ellipse;whiteSpace=wrap;html=1;aspect=fixed;fontSize=25;" vertex="1" parent="1">
          <mxGeometry x="1246.75" y="885.1300000000001" width="80" height="80" as="geometry" />
        </mxCell>
        <mxCell id="dYpTiOb7dCnP9YXtlggP-239" style="edgeStyle=none;rounded=0;orthogonalLoop=1;jettySize=auto;html=1;exitX=1;exitY=0.5;exitDx=0;exitDy=0;entryX=0;entryY=0.5;entryDx=0;entryDy=0;strokeColor=default;strokeWidth=0.5;align=center;verticalAlign=middle;fontFamily=Helvetica;fontSize=25;fontColor=default;labelBackgroundColor=default;startSize=8;endArrow=classic;endSize=8;" edge="1" parent="1" source="dYpTiOb7dCnP9YXtlggP-244">
          <mxGeometry relative="1" as="geometry" />
        </mxCell>
        <mxCell id="dYpTiOb7dCnP9YXtlggP-240" style="edgeStyle=none;curved=1;rounded=0;orthogonalLoop=1;jettySize=auto;html=1;exitX=1;exitY=0.5;exitDx=0;exitDy=0;entryX=0;entryY=0.5;entryDx=0;entryDy=0;fontSize=12;startSize=8;endSize=8;strokeWidth=0.5;" edge="1" parent="1" source="dYpTiOb7dCnP9YXtlggP-244" target="dYpTiOb7dCnP9YXtlggP-129">
          <mxGeometry relative="1" as="geometry" />
        </mxCell>
        <mxCell id="dYpTiOb7dCnP9YXtlggP-241" style="edgeStyle=none;curved=1;rounded=0;orthogonalLoop=1;jettySize=auto;html=1;exitX=1;exitY=0.5;exitDx=0;exitDy=0;entryX=0;entryY=0.5;entryDx=0;entryDy=0;fontSize=12;startSize=8;endSize=8;strokeWidth=0.5;" edge="1" parent="1" source="dYpTiOb7dCnP9YXtlggP-244" target="dYpTiOb7dCnP9YXtlggP-131">
          <mxGeometry relative="1" as="geometry" />
        </mxCell>
        <mxCell id="dYpTiOb7dCnP9YXtlggP-242" style="edgeStyle=none;curved=1;rounded=0;orthogonalLoop=1;jettySize=auto;html=1;exitX=1;exitY=0.5;exitDx=0;exitDy=0;entryX=0;entryY=0.5;entryDx=0;entryDy=0;fontSize=12;startSize=8;endSize=8;strokeWidth=0.5;" edge="1" parent="1" source="dYpTiOb7dCnP9YXtlggP-244" target="dYpTiOb7dCnP9YXtlggP-134">
          <mxGeometry relative="1" as="geometry" />
        </mxCell>
        <mxCell id="dYpTiOb7dCnP9YXtlggP-243" style="edgeStyle=none;curved=1;rounded=0;orthogonalLoop=1;jettySize=auto;html=1;exitX=1;exitY=0.5;exitDx=0;exitDy=0;entryX=0;entryY=0.5;entryDx=0;entryDy=0;fontSize=25;startSize=8;endSize=8;strokeWidth=0.5;" edge="1" parent="1" source="dYpTiOb7dCnP9YXtlggP-13" target="dYpTiOb7dCnP9YXtlggP-258">
          <mxGeometry relative="1" as="geometry" />
        </mxCell>
        <mxCell id="dYpTiOb7dCnP9YXtlggP-244" value="h&lt;sub style=&quot;border-color: var(--border-color);&quot;&gt;21&lt;/sub&gt;" style="ellipse;whiteSpace=wrap;html=1;aspect=fixed;fontSize=25;" vertex="1" parent="1">
          <mxGeometry x="2321.25" y="494" width="80" height="80" as="geometry" />
        </mxCell>
        <mxCell id="dYpTiOb7dCnP9YXtlggP-245" style="edgeStyle=none;curved=1;rounded=0;orthogonalLoop=1;jettySize=auto;html=1;exitX=1;exitY=0.5;exitDx=0;exitDy=0;entryX=0;entryY=0.5;entryDx=0;entryDy=0;fontSize=25;startSize=8;endSize=8;strokeWidth=0.5;" edge="1" parent="1" source="dYpTiOb7dCnP9YXtlggP-253" target="dYpTiOb7dCnP9YXtlggP-250">
          <mxGeometry relative="1" as="geometry" />
        </mxCell>
        <mxCell id="dYpTiOb7dCnP9YXtlggP-246" style="edgeStyle=none;curved=1;rounded=0;orthogonalLoop=1;jettySize=auto;html=1;exitX=1;exitY=0.5;exitDx=0;exitDy=0;entryX=0;entryY=0.5;entryDx=0;entryDy=0;fontSize=25;startSize=8;endSize=8;strokeWidth=0.5;" edge="1" parent="1" source="dYpTiOb7dCnP9YXtlggP-250" target="dYpTiOb7dCnP9YXtlggP-31">
          <mxGeometry relative="1" as="geometry" />
        </mxCell>
        <mxCell id="dYpTiOb7dCnP9YXtlggP-247" value="Hidden Layer2" style="text;strokeColor=none;fillColor=none;html=1;align=center;verticalAlign=middle;whiteSpace=wrap;rounded=0;fontSize=26;fontColor=#c2d4a0;" vertex="1" parent="1">
          <mxGeometry x="505.25" y="1297" width="149" height="30" as="geometry" />
        </mxCell>
        <mxCell id="dYpTiOb7dCnP9YXtlggP-248" style="edgeStyle=none;curved=1;rounded=0;orthogonalLoop=1;jettySize=auto;html=1;exitX=1;exitY=0.5;exitDx=0;exitDy=0;entryX=0;entryY=0.5;entryDx=0;entryDy=0;fontSize=25;startSize=8;endSize=8;strokeWidth=0.5;" edge="1" parent="1" source="dYpTiOb7dCnP9YXtlggP-250" target="dYpTiOb7dCnP9YXtlggP-258">
          <mxGeometry relative="1" as="geometry" />
        </mxCell>
        <mxCell id="dYpTiOb7dCnP9YXtlggP-249" style="edgeStyle=none;curved=1;rounded=0;orthogonalLoop=1;jettySize=auto;html=1;exitX=1;exitY=0.5;exitDx=0;exitDy=0;entryX=0;entryY=0.5;entryDx=0;entryDy=0;fontSize=25;startSize=8;endSize=8;strokeWidth=0.5;" edge="1" parent="1" source="dYpTiOb7dCnP9YXtlggP-253" target="dYpTiOb7dCnP9YXtlggP-256">
          <mxGeometry relative="1" as="geometry" />
        </mxCell>
        <mxCell id="dYpTiOb7dCnP9YXtlggP-250" value="h&lt;sub style=&quot;border-color: var(--border-color);&quot;&gt;23&lt;/sub&gt;" style="ellipse;whiteSpace=wrap;html=1;aspect=fixed;fontSize=25;" vertex="1" parent="1">
          <mxGeometry x="1449.75" y="769.1300000000001" width="80" height="80" as="geometry" />
        </mxCell>
        <mxCell id="dYpTiOb7dCnP9YXtlggP-251" value="&lt;span style=&quot;color: rgb(0, 0, 0); font-family: Helvetica; font-size: 25px; font-style: normal; font-variant-ligatures: normal; font-variant-caps: normal; font-weight: 400; letter-spacing: normal; orphans: 2; text-align: center; text-indent: 0px; text-transform: none; widows: 2; word-spacing: 0px; -webkit-text-stroke-width: 0px; background-color: rgb(255, 255, 255); text-decoration-thickness: initial; text-decoration-style: initial; text-decoration-color: initial; float: none; display: inline !important;&quot;&gt;y&lt;/span&gt;&lt;sub style=&quot;border-color: var(--border-color); color: rgb(0, 0, 0); font-family: Helvetica; font-style: normal; font-variant-ligatures: normal; font-variant-caps: normal; font-weight: 400; letter-spacing: normal; orphans: 2; text-align: center; text-indent: 0px; text-transform: none; widows: 2; word-spacing: 0px; -webkit-text-stroke-width: 0px; background-color: rgb(255, 255, 255); text-decoration-thickness: initial; text-decoration-style: initial; text-decoration-color: initial;&quot;&gt;2&lt;/sub&gt;" style="ellipse;whiteSpace=wrap;html=1;aspect=fixed;fontSize=25;" vertex="1" parent="1">
          <mxGeometry x="776.6099999999997" y="965" width="80" height="80" as="geometry" />
        </mxCell>
        <mxCell id="dYpTiOb7dCnP9YXtlggP-252" style="edgeStyle=none;curved=1;rounded=0;orthogonalLoop=1;jettySize=auto;html=1;exitX=1;exitY=0.5;exitDx=0;exitDy=0;entryX=0;entryY=0.5;entryDx=0;entryDy=0;fontSize=25;startSize=8;endSize=8;strokeWidth=0.5;" edge="1" parent="1" source="dYpTiOb7dCnP9YXtlggP-256" target="dYpTiOb7dCnP9YXtlggP-258">
          <mxGeometry relative="1" as="geometry" />
        </mxCell>
        <mxCell id="dYpTiOb7dCnP9YXtlggP-253" value="h&lt;span style=&quot;border-color: var(--border-color);&quot;&gt;&lt;sub&gt;11&lt;/sub&gt;&lt;/span&gt;" style="ellipse;whiteSpace=wrap;html=1;aspect=fixed;fontSize=25;" vertex="1" parent="1">
          <mxGeometry x="1246.75" y="514.6300000000001" width="80" height="80" as="geometry" />
        </mxCell>
        <mxCell id="dYpTiOb7dCnP9YXtlggP-254" style="edgeStyle=none;curved=1;rounded=0;orthogonalLoop=1;jettySize=auto;html=1;exitX=1;exitY=0.5;exitDx=0;exitDy=0;entryX=0;entryY=0.5;entryDx=0;entryDy=0;fontSize=25;startSize=8;endSize=8;strokeWidth=0.5;" edge="1" parent="1" source="dYpTiOb7dCnP9YXtlggP-256" target="dYpTiOb7dCnP9YXtlggP-31">
          <mxGeometry relative="1" as="geometry" />
        </mxCell>
        <mxCell id="dYpTiOb7dCnP9YXtlggP-255" style="edgeStyle=none;curved=1;rounded=0;orthogonalLoop=1;jettySize=auto;html=1;exitX=1;exitY=0.5;exitDx=0;exitDy=0;entryX=0;entryY=0.5;entryDx=0;entryDy=0;fontSize=12;startSize=8;endSize=8;strokeWidth=0.5;endArrow=classic;endFill=1;sourcePerimeterSpacing=1;" edge="1" parent="1" source="dYpTiOb7dCnP9YXtlggP-49" target="dYpTiOb7dCnP9YXtlggP-236">
          <mxGeometry relative="1" as="geometry" />
        </mxCell>
        <mxCell id="dYpTiOb7dCnP9YXtlggP-256" value="h&lt;sub style=&quot;border-color: var(--border-color);&quot;&gt;24&lt;/sub&gt;" style="ellipse;whiteSpace=wrap;html=1;aspect=fixed;fontSize=25;" vertex="1" parent="1">
          <mxGeometry x="1449.75" y="885.1300000000001" width="80" height="80" as="geometry" />
        </mxCell>
        <mxCell id="dYpTiOb7dCnP9YXtlggP-257" style="edgeStyle=none;curved=1;rounded=0;orthogonalLoop=1;jettySize=auto;html=1;exitX=1;exitY=0.5;exitDx=0;exitDy=0;entryX=0;entryY=0.5;entryDx=0;entryDy=0;fontSize=25;startSize=8;endSize=8;strokeWidth=0.5;" edge="1" parent="1" source="dYpTiOb7dCnP9YXtlggP-15" target="dYpTiOb7dCnP9YXtlggP-258">
          <mxGeometry relative="1" as="geometry" />
        </mxCell>
        <mxCell id="dYpTiOb7dCnP9YXtlggP-258" value="y&lt;sub style=&quot;border-color: var(--border-color);&quot;&gt;1&lt;/sub&gt;" style="ellipse;whiteSpace=wrap;html=1;aspect=fixed;fontSize=25;" vertex="1" parent="1">
          <mxGeometry x="1652.5" y="650.6300000000001" width="80" height="80" as="geometry" />
        </mxCell>
        <mxCell id="dYpTiOb7dCnP9YXtlggP-259" style="edgeStyle=none;curved=1;rounded=0;orthogonalLoop=1;jettySize=auto;html=1;exitX=1;exitY=0.5;exitDx=0;exitDy=0;entryX=0;entryY=0.5;entryDx=0;entryDy=0;fontSize=12;startSize=8;endSize=8;strokeWidth=0.5;" edge="1" parent="1" source="dYpTiOb7dCnP9YXtlggP-136" target="dYpTiOb7dCnP9YXtlggP-88">
          <mxGeometry relative="1" as="geometry" />
        </mxCell>
        <mxCell id="dYpTiOb7dCnP9YXtlggP-260" value="Output Layer" style="text;strokeColor=none;fillColor=none;html=1;align=center;verticalAlign=middle;whiteSpace=wrap;rounded=0;fontSize=26;fontColor=#c9646e;" vertex="1" parent="1">
          <mxGeometry x="732.7399999999998" y="483.5" width="167.75" height="30" as="geometry" />
        </mxCell>
        <mxCell id="dYpTiOb7dCnP9YXtlggP-261" value="Hidden Layer1" style="text;strokeColor=none;fillColor=none;html=1;align=center;verticalAlign=middle;whiteSpace=wrap;rounded=0;fontSize=26;fontColor=#c2d4a0;" vertex="1" parent="1">
          <mxGeometry x="302.25" y="1297" width="149" height="30" as="geometry" />
        </mxCell>
        <mxCell id="dYpTiOb7dCnP9YXtlggP-262" value="Input Layer" style="text;strokeColor=none;fillColor=none;html=1;align=center;verticalAlign=middle;whiteSpace=wrap;rounded=0;fontSize=26;fontColor=#6c8ebf;" vertex="1" parent="1">
          <mxGeometry x="94.25" y="1225" width="149" height="30" as="geometry" />
        </mxCell>
        <mxCell id="dYpTiOb7dCnP9YXtlggP-263" value="Input Layer" style="text;strokeColor=none;fillColor=none;html=1;align=center;verticalAlign=middle;whiteSpace=wrap;rounded=0;fontSize=26;fontColor=#6c8ebf;" vertex="1" parent="1">
          <mxGeometry x="1005.75" y="964" width="149" height="30" as="geometry" />
        </mxCell>
      </root>
    </mxGraphModel>
  </diagram>
</mxfile>
